<?xml version="1.0" encoding="UTF-8" standalone="no"?>
<!DOCTYPE svg PUBLIC "-//W3C//DTD SVG 1.1//EN" "http://www.w3.org/Graphics/SVG/1.1/DTD/svg11.dtd">
<svg xmlns="http://www.w3.org/2000/svg" version="1.1" viewBox="0.00 0.00 458.00 505.00">
<g stroke-width="2.00" fill="none" stroke-linecap="butt">
<path stroke="#cfb76f" vector-effect="non-scaling-stroke" d="
  M 300.06 50.31
  Q 301.10 51.04 297.13 51.99"
/>
<path stroke="#cfb76f" vector-effect="non-scaling-stroke" d="
  M 307.61 57.26
  L 309.04 59.04
  Q 309.35 59.41 309.31 59.89
  L 309.03 63.24
  Q 308.99 63.80 309.53 63.93
  Q 309.73 63.98 309.85 64.14
  Q 310.11 64.49 309.85 64.85
  Q 309.72 65.04 309.49 65.08
  A 0.45 0.44 -7.1 0 0 309.12 65.55
  Q 309.20 66.76 308.20 67.93"
/>
<path stroke="#d7c178" vector-effect="non-scaling-stroke" d="
  M 183.75 53.12
  L 183.56 52.10
  A 0.18 0.17 71.7 0 0 183.31 51.97
  Q 183.14 52.05 182.98 52.13
  A 0.18 0.18 0.0 0 1 182.72 51.98
  Q 182.70 51.30 182.39 50.83
  Q 182.14 50.44 182.39 50.06
  Q 182.89 49.31 182.16 48.58
  Q 181.79 48.22 182.26 48.00
  L 182.73 47.78
  A 0.34 0.34 0.0 0 0 182.65 47.14
  Q 182.23 47.07 182.01 46.75
  A 0.56 0.55 -17.4 0 1 182.47 45.88
  L 183.20 45.88
  Q 184.12 45.88 183.33 45.41
  Q 182.80 45.09 182.19 45.01
  A 0.44 0.44 0.0 0 1 182.03 44.19
  Q 182.62 43.85 182.93 43.29
  A 0.76 0.05 79.4 0 0 182.85 42.61
  Q 182.83 42.46 182.78 42.32
  Q 182.68 41.96 182.99 41.74
  Q 183.39 41.46 183.70 41.00"
/>
<path stroke="#ba9957" vector-effect="non-scaling-stroke" d="
  M 117.76 78.06
  Q 117.09 76.59 117.52 75.89
  Q 117.95 75.20 117.50 75.11
  Q 117.19 75.05 117.04 74.72
  Q 116.80 74.22 117.30 73.98
  L 117.74 73.78
  A 0.36 0.36 0.0 0 0 117.50 73.11
  Q 116.76 73.29 116.27 72.78
  A 0.49 0.48 63.4 0 1 116.54 71.96
  L 117.29 71.85
  Q 118.35 71.69 117.45 71.10
  L 117.10 70.88
  A 0.46 0.45 47.4 0 1 117.13 70.10
  L 117.77 69.75
  A 0.27 0.27 0.0 0 0 117.84 69.33
  Q 117.66 69.15 117.42 69.06
  Q 116.72 68.78 117.25 68.25
  L 117.49 68.01
  Q 117.83 67.67 117.74 67.20
  Q 117.56 66.32 117.82 65.12"
/>
<path stroke="#a98143" vector-effect="non-scaling-stroke" d="
  M 399.58 120.13
  Q 399.06 121.08 398.09 120.88
  Q 397.55 120.77 397.43 121.31
  Q 397.24 122.13 397.75 122.77
  Q 398.68 123.96 401.60 126.95
  A 0.87 0.87 0.0 0 1 401.82 127.80
  C 401.45 129.18 402.37 130.13 402.41 131.16
  Q 402.46 132.10 402.20 133.08"
/>
<path stroke="#a98143" vector-effect="non-scaling-stroke" d="
  M 401.88 133.71
  Q 401.70 133.84 401.60 134.06
  Q 401.43 134.49 401.89 134.57
  Q 402.29 134.65 402.12 135.01
  A 0.53 0.53 0.0 0 0 402.52 135.75
  Q 403.05 135.83 403.16 136.33
  Q 403.24 136.69 402.98 136.95
  L 402.75 137.18
  Q 402.40 137.52 402.69 137.91
  Q 403.19 138.61 402.46 139.06
  Q 401.91 139.40 402.37 139.86
  L 402.75 140.25
  Q 403.01 140.50 402.75 140.75
  L 402.40 141.10
  Q 402.11 141.40 402.35 141.74
  Q 403.74 143.68 402.19 145.20
  Q 401.86 145.53 402.18 145.86
  Q 403.32 147.02 402.61 148.51
  Q 402.55 148.63 402.40 148.63
  Q 402.27 148.62 402.15 148.66
  Q 402.00 148.72 401.92 148.58
  Q 401.80 148.37 401.70 148.19
  Q 401.55 147.90 401.26 148.06
  Q 400.89 148.26 400.74 147.99
  Q 400.69 147.90 400.77 147.86
  Q 400.90 147.79 401.02 147.73
  A 0.15 0.15 0.0 0 0 401.04 147.47
  L 397.73 145.19"
/>
<path stroke="#b18c4c" vector-effect="non-scaling-stroke" d="
  M 392.60 419.87
  Q 392.45 418.36 394.19 416.88
  Q 394.57 416.56 394.70 416.08
  Q 394.77 415.84 394.81 415.59
  Q 394.91 415.04 394.36 415.12
  Q 393.70 415.22 392.93 415.73"
/>
<path stroke="#b18c4c" vector-effect="non-scaling-stroke" d="
  M 375.75 431.30
  L 376.63 429.39
  Q 376.91 428.77 376.25 428.92
  L 374.97 429.21"
/>
<path stroke="#a98143" vector-effect="non-scaling-stroke" d="
  M 118.15 290.92
  Q 116.11 288.87 116.66 287.71
  Q 116.87 287.25 116.53 286.88
  Q 116.02 286.33 116.61 285.86
  A 0.45 0.44 -31.7 0 0 116.74 285.32
  L 116.49 284.79
  Q 116.29 284.36 116.59 283.99
  Q 117.15 283.29 116.52 282.79
  A 0.36 0.36 0.0 0 1 116.47 282.26
  Q 116.62 282.08 116.61 281.86
  Q 116.59 281.20 116.54 281.13
  Q 116.13 280.58 116.44 279.99
  Q 116.68 279.55 116.56 279.06
  Q 116.13 277.25 116.85 275.52
  Q 116.92 275.36 116.76 275.28
  Q 116.63 275.21 116.50 275.15
  Q 116.45 275.13 116.50 275.12
  Q 116.82 275.06 116.77 274.74"
/>
<path stroke="#a98143" vector-effect="non-scaling-stroke" d="
  M 121.54 334.49
  Q 120.67 335.32 120.15 336.44
  Q 120.01 336.76 120.26 336.99
  Q 120.52 337.23 120.90 337.03
  Q 121.30 336.81 121.06 337.20
  Q 120.74 337.71 120.18 338.06
  A 0.53 0.53 0.0 0 0 120.19 338.96
  Q 121.01 339.46 120.31 339.96
  Q 119.82 340.31 120.24 340.73
  L 120.64 341.13
  Q 121.08 341.57 120.57 341.93
  Q 119.73 342.52 120.50 343.24
  Q 120.77 343.49 120.51 343.75
  L 120.25 344.02
  A 0.50 0.50 0.0 0 0 120.27 344.76
  Q 121.11 345.48 120.29 346.03
  A 0.43 0.43 0.0 0 0 120.25 346.73
  Q 121.04 347.39 120.39 348.14
  Q 120.09 348.48 120.33 348.88
  Q 120.90 349.85 120.14 350.73"
/>
<path stroke="#ba9957" vector-effect="non-scaling-stroke" d="
  M 308.17 296.57
  L 308.75 296.76
  Q 308.88 296.81 308.91 296.75
  Q 308.97 296.62 309.03 296.50
  A 0.07 0.07 0.0 0 1 309.16 296.53
  L 309.09 320.31
  Q 309.09 320.82 308.59 320.71
  Q 307.98 320.58 307.61 320.63"
/>
</g>
<path fill="#e7d88a" d="
  M 300.06 50.31
  Q 301.10 51.04 297.13 51.99
  C 283.97 47.35 274.36 45.08 265.16 43.44
  C 261.73 42.83 257.35 41.29 252.81 41.48
  Q 252.75 41.48 252.75 41.55
  Q 252.75 41.58 252.75 41.62
  Q 252.74 41.77 252.87 41.79
  Q 281.26 45.91 307.61 57.26
  L 309.04 59.04
  Q 309.35 59.41 309.31 59.89
  L 309.03 63.24
  Q 308.99 63.80 309.53 63.93
  Q 309.73 63.98 309.85 64.14
  Q 310.11 64.49 309.85 64.85
  Q 309.72 65.04 309.49 65.08
  A 0.45 0.44 -7.1 0 0 309.12 65.55
  Q 309.20 66.76 308.20 67.93
  Q 286.86 58.56 263.86 53.95
  C 257.20 52.62 250.59 51.00 243.97 50.44
  Q 227.11 49.02 210.19 49.29
  C 201.52 49.43 192.50 51.77 183.75 53.12
  L 183.56 52.10
  A 0.18 0.17 71.7 0 0 183.31 51.97
  Q 183.14 52.05 182.98 52.13
  A 0.18 0.18 0.0 0 1 182.72 51.98
  Q 182.70 51.30 182.39 50.83
  Q 182.14 50.44 182.39 50.06
  Q 182.89 49.31 182.16 48.58
  Q 181.79 48.22 182.26 48.00
  L 182.73 47.78
  A 0.34 0.34 0.0 0 0 182.65 47.14
  Q 182.23 47.07 182.01 46.75
  A 0.56 0.55 -17.4 0 1 182.47 45.88
  L 183.20 45.88
  Q 184.12 45.88 183.33 45.41
  Q 182.80 45.09 182.19 45.01
  A 0.44 0.44 0.0 0 1 182.03 44.19
  Q 182.62 43.85 182.93 43.29
  A 0.76 0.05 79.4 0 0 182.85 42.61
  Q 182.83 42.46 182.78 42.32
  Q 182.68 41.96 182.99 41.74
  Q 183.39 41.46 183.70 41.00
  Q 200.28 38.28 211.75 37.52
  Q 256.56 34.55 300.06 50.31
  Z"
/>
<path fill="#c6aa65" d="
  M 183.70 41.00
  Q 183.39 41.46 182.99 41.74
  Q 182.68 41.96 182.78 42.32
  Q 182.83 42.46 182.85 42.61
  A 0.76 0.05 79.4 0 1 182.93 43.29
  Q 182.62 43.85 182.03 44.19
  A 0.44 0.44 0.0 0 0 182.19 45.01
  Q 182.80 45.09 183.33 45.41
  Q 184.12 45.88 183.20 45.88
  L 182.47 45.88
  A 0.56 0.55 -17.4 0 0 182.01 46.75
  Q 182.23 47.07 182.65 47.14
  A 0.34 0.34 0.0 0 1 182.73 47.78
  L 182.26 48.00
  Q 181.79 48.22 182.16 48.58
  Q 182.89 49.31 182.39 50.06
  Q 182.14 50.44 182.39 50.83
  Q 182.70 51.30 182.72 51.98
  A 0.18 0.18 0.0 0 0 182.98 52.13
  Q 183.14 52.05 183.31 51.97
  A 0.18 0.17 71.7 0 1 183.56 52.10
  L 183.75 53.12
  Q 148.66 60.30 117.76 78.06
  Q 117.09 76.59 117.52 75.89
  Q 117.95 75.20 117.50 75.11
  Q 117.19 75.05 117.04 74.72
  Q 116.80 74.22 117.30 73.98
  L 117.74 73.78
  A 0.36 0.36 0.0 0 0 117.50 73.11
  Q 116.76 73.29 116.27 72.78
  A 0.49 0.48 63.4 0 1 116.54 71.96
  L 117.29 71.85
  Q 118.35 71.69 117.45 71.10
  L 117.10 70.88
  A 0.46 0.45 47.4 0 1 117.13 70.10
  L 117.77 69.75
  A 0.27 0.27 0.0 0 0 117.84 69.33
  Q 117.66 69.15 117.42 69.06
  Q 116.72 68.78 117.25 68.25
  L 117.49 68.01
  Q 117.83 67.67 117.74 67.20
  Q 117.56 66.32 117.82 65.12
  C 139.81 52.71 160.73 45.44 183.70 41.00
  Z"
/>
<path fill="#b79554" fill-opacity="0.996" d="
  M 300.06 50.31
  C 339.18 64.07 372.95 88.35 399.58 120.13
  Q 399.06 121.08 398.09 120.88
  Q 397.55 120.77 397.43 121.31
  Q 397.24 122.13 397.75 122.77
  Q 398.68 123.96 401.60 126.95
  A 0.87 0.87 0.0 0 1 401.82 127.80
  C 401.45 129.18 402.37 130.13 402.41 131.16
  Q 402.46 132.10 402.20 133.08
  L 397.29 126.82
  Q 397.18 126.69 397.05 126.80
  L 397.05 126.80
  Q 396.92 126.90 397.02 127.04
  L 401.88 133.71
  Q 401.70 133.84 401.60 134.06
  Q 401.43 134.49 401.89 134.57
  Q 402.29 134.65 402.12 135.01
  A 0.53 0.53 0.0 0 0 402.52 135.75
  Q 403.05 135.83 403.16 136.33
  Q 403.24 136.69 402.98 136.95
  L 402.75 137.18
  Q 402.40 137.52 402.69 137.91
  Q 403.19 138.61 402.46 139.06
  Q 401.91 139.40 402.37 139.86
  L 402.75 140.25
  Q 403.01 140.50 402.75 140.75
  L 402.40 141.10
  Q 402.11 141.40 402.35 141.74
  Q 403.74 143.68 402.19 145.20
  Q 401.86 145.53 402.18 145.86
  Q 403.32 147.02 402.61 148.51
  Q 402.55 148.63 402.40 148.63
  Q 402.27 148.62 402.15 148.66
  Q 402.00 148.72 401.92 148.58
  Q 401.80 148.37 401.70 148.19
  Q 401.55 147.90 401.26 148.06
  Q 400.89 148.26 400.74 147.99
  Q 400.69 147.90 400.77 147.86
  Q 400.90 147.79 401.02 147.73
  A 0.15 0.15 0.0 0 0 401.04 147.47
  L 397.73 145.19
  Q 387.64 130.50 376.56 116.45
  C 375.23 114.76 373.27 114.35 371.94 113.02
  C 367.32 108.39 362.84 103.72 357.77 99.60
  Q 345.43 89.57 338.91 85.09
  Q 326.78 76.75 308.20 67.93
  Q 309.20 66.76 309.12 65.55
  A 0.45 0.44 -7.1 0 1 309.49 65.08
  Q 309.72 65.04 309.85 64.85
  Q 310.11 64.49 309.85 64.14
  Q 309.73 63.98 309.53 63.93
  Q 308.99 63.80 309.03 63.24
  L 309.31 59.89
  Q 309.35 59.41 309.04 59.04
  L 307.61 57.26
  C 334.94 68.49 360.44 86.82 380.48 108.08
  Q 380.51 108.12 380.55 108.08
  L 380.74 107.91
  Q 380.95 107.70 380.75 107.48
  C 360.47 85.20 334.32 67.91 306.71 56.07
  Q 302.08 54.09 297.13 51.99
  Q 301.10 51.04 300.06 50.31
  Z"
/>
<path fill="#ad8748" d="
  M 117.82 65.12
  Q 117.56 66.32 117.74 67.20
  Q 117.83 67.67 117.49 68.01
  L 117.25 68.25
  Q 116.72 68.78 117.42 69.06
  Q 117.66 69.15 117.84 69.33
  A 0.27 0.27 0.0 0 1 117.77 69.75
  L 117.13 70.10
  A 0.46 0.45 47.4 0 0 117.10 70.88
  L 117.45 71.10
  Q 118.35 71.69 117.29 71.85
  L 116.54 71.96
  A 0.49 0.48 63.4 0 0 116.27 72.78
  Q 116.76 73.29 117.50 73.11
  A 0.36 0.36 0.0 0 1 117.74 73.78
  L 117.30 73.98
  Q 116.80 74.22 117.04 74.72
  Q 117.19 75.05 117.50 75.11
  Q 117.95 75.20 117.52 75.89
  Q 117.09 76.59 117.76 78.06
  Q 91.73 93.73 70.64 115.55
  C 69.84 116.38 68.69 116.70 68.12 117.36
  Q 56.64 130.81 46.67 145.39
  C 42.01 152.21 38.28 159.90 33.84 168.06
  C 26.38 181.77 21.68 196.97 17.77 212.64
  C 12.85 232.31 11.61 251.28 10.72 271.73
  Q 10.72 271.82 10.63 271.81
  L 10.36 271.81
  Q 10.26 271.81 10.25 271.70
  Q 8.87 218.39 30.13 169.67
  Q 30.22 169.46 30.01 169.36
  L 29.76 169.25
  Q 29.74 169.24 29.73 169.26
  Q 12.67 205.27 8.76 245.00
  Q 7.59 256.83 6.88 267.02
  Q 6.60 271.07 6.03 267.05
  Q 5.65 264.28 5.67 260.50
  C 5.86 232.30 11.73 206.34 21.58 180.06
  Q 22.26 178.26 22.70 176.10
  Q 22.92 175.06 22.49 176.03
  Q 17.50 187.35 13.39 199.01
  Q 13.13 199.76 13.11 198.97
  Q 13.10 198.62 13.17 198.22
  A 0.31 0.31 0.0 0 0 12.60 198.00
  Q 11.87 199.13 12.05 200.39
  Q 12.09 200.67 11.88 200.86
  Q 11.16 201.51 10.76 203.01
  Q 9.27 208.62 7.68 214.19
  Q 7.64 214.32 7.51 214.28
  L 7.51 214.28
  Q 7.38 214.25 7.41 214.12
  Q 24.91 141.92 79.26 92.49
  Q 83.70 88.45 89.35 84.18
  C 98.55 77.23 107.61 70.65 117.82 65.12
  Z"
/>
<path fill="#9b6e33" d="
  M 399.58 120.13
  C 425.17 150.86 440.93 184.21 447.24 223.76
  Q 453.60 263.66 448.48 299.98
  Q 438.78 368.62 392.60 419.87
  Q 392.45 418.36 394.19 416.88
  Q 394.57 416.56 394.70 416.08
  Q 394.77 415.84 394.81 415.59
  Q 394.91 415.04 394.36 415.12
  Q 393.70 415.22 392.93 415.73
  C 403.22 403.19 412.46 390.99 420.13 376.63
  Q 420.22 376.46 420.05 376.36
  L 420.05 376.35
  Q 419.88 376.25 419.78 376.42
  Q 418.24 378.81 416.75 381.25
  Q 399.70 409.10 375.75 431.30
  L 376.63 429.39
  Q 376.91 428.77 376.25 428.92
  L 374.97 429.21
  C 396.88 408.63 415.24 383.38 426.59 355.58
  C 430.53 345.92 434.74 336.61 437.08 326.13
  C 440.27 311.87 444.20 294.89 444.80 282.25
  C 445.28 272.25 446.26 261.58 445.88 252.24
  Q 445.11 233.36 441.03 214.85
  Q 441.00 214.74 440.89 214.75
  Q 440.86 214.75 440.83 214.75
  A 0.07 0.06 -8.7 0 0 440.77 214.82
  Q 441.44 221.31 442.51 227.75
  C 443.27 232.34 443.25 236.78 443.88 241.54
  C 444.49 246.14 442.78 250.91 442.90 254.75
  Q 443.44 272.49 442.67 277.75
  Q 441.61 285.10 440.92 292.50
  Q 440.09 301.46 434.64 320.70
  C 427.86 344.66 419.10 367.67 405.57 387.83
  C 381.57 423.56 348.22 452.32 305.75 469.21
  Q 305.09 469.47 304.04 469.28
  Q 303.54 469.18 304.03 469.05
  Q 304.64 468.89 305.36 469.03
  A 0.55 0.54 14.0 0 0 305.99 468.66
  Q 306.16 468.09 306.71 468.11
  Q 307.21 468.13 307.65 467.88
  C 310.81 466.05 313.73 464.18 317.14 462.54
  Q 323.56 459.45 329.45 455.39
  Q 331.05 454.28 329.23 454.99
  L 326.00 456.26
  Q 325.87 456.31 325.82 456.21
  L 325.82 456.21
  Q 325.76 456.08 325.88 456.01
  Q 335.46 450.43 348.72 440.75
  C 365.19 428.73 382.11 413.40 392.27 395.47
  A 0.22 0.22 0.0 0 0 392.01 395.15
  Q 391.96 395.17 391.76 395.22
  Q 391.71 395.24 391.68 395.28
  Q 382.67 404.85 372.86 413.61
  Q 370.76 415.49 368.41 417.06
  Q 368.15 417.23 368.01 416.96
  Q 367.90 416.74 368.08 416.56
  C 387.75 396.94 404.38 372.40 416.05 344.54
  Q 423.46 326.85 428.35 301.02
  C 428.60 299.71 428.41 297.87 428.69 296.34
  Q 432.25 276.44 431.22 256.27
  C 431.06 253.07 432.16 249.96 431.71 246.92
  C 430.64 239.53 429.92 231.32 428.74 224.73
  Q 424.48 200.75 415.61 178.02
  C 415.35 177.34 414.69 176.99 414.48 176.50
  Q 407.36 160.21 397.73 145.19
  L 401.04 147.47
  A 0.15 0.15 0.0 0 1 401.02 147.73
  Q 400.90 147.79 400.77 147.86
  Q 400.69 147.90 400.74 147.99
  Q 400.89 148.26 401.26 148.06
  Q 401.55 147.90 401.70 148.19
  Q 401.80 148.37 401.92 148.58
  Q 402.00 148.72 402.15 148.66
  Q 402.27 148.62 402.40 148.63
  Q 402.55 148.63 402.61 148.51
  Q 403.32 147.02 402.18 145.86
  Q 401.86 145.53 402.19 145.20
  Q 403.74 143.68 402.35 141.74
  Q 402.11 141.40 402.40 141.10
  L 402.75 140.75
  Q 403.01 140.50 402.75 140.25
  L 402.37 139.86
  Q 401.91 139.40 402.46 139.06
  Q 403.19 138.61 402.69 137.91
  Q 402.40 137.52 402.75 137.18
  L 402.98 136.95
  Q 403.24 136.69 403.16 136.33
  Q 403.05 135.83 402.52 135.75
  A 0.53 0.53 0.0 0 1 402.12 135.01
  Q 402.29 134.65 401.89 134.57
  Q 401.43 134.49 401.60 134.06
  Q 401.70 133.84 401.88 133.71
  C 407.14 140.54 411.13 148.82 415.22 156.39
  Q 431.50 186.59 438.21 220.24
  Q 439.04 224.38 439.54 225.50
  Q 439.36 227.65 440.06 229.50
  Q 440.34 230.25 440.21 229.46
  L 439.54 225.50
  C 434.27 192.08 421.55 160.83 402.20 133.08
  Q 402.46 132.10 402.41 131.16
  C 402.37 130.13 401.45 129.18 401.82 127.80
  A 0.87 0.87 0.0 0 0 401.60 126.95
  Q 398.68 123.96 397.75 122.77
  Q 397.24 122.13 397.43 121.31
  Q 397.55 120.77 398.09 120.88
  Q 399.06 121.08 399.58 120.13
  Z
  M 440.9110 236.2994
  A 2.16 0.29 91.3 0 0 441.2499 234.1466
  A 2.16 0.29 91.3 0 0 441.0090 231.9806
  A 2.16 0.29 91.3 0 0 440.6701 234.1334
  A 2.16 0.29 91.3 0 0 440.9110 236.2994
  Z
  M 442.3600 244.3882
  A 2.73 0.46 92.1 0 0 442.9197 241.6769
  A 2.73 0.46 92.1 0 0 442.5600 238.9318
  A 2.73 0.46 92.1 0 0 442.0003 241.6431
  A 2.73 0.46 92.1 0 0 442.3600 244.3882
  Z
  M 446.4144 308.7248
  A 0.27 0.27 0.0 0 0 446.2235 308.3941
  L 446.2042 308.3889
  A 0.27 0.27 0.0 0 0 445.8735 308.5798
  L 440.0656 330.2552
  A 0.27 0.27 0.0 0 0 440.2565 330.5859
  L 440.2758 330.5911
  A 0.27 0.27 0.0 0 0 440.6065 330.4002
  L 446.4144 308.7248
  Z"
/>
<path fill="#e7d88a" d="
  M 236.14 153.58
  L 226.59 171.05
  A 0.99 0.99 0.0 0 1 224.85 171.05
  L 215.36 153.68
  A 0.99 0.99 0.0 0 1 216.22 152.21
  L 235.27 152.12
  A 0.99 0.99 0.0 0 1 236.14 153.58
  Z"
/>
<path fill="#c6aa65" d="
  M 221.93 173.01
  Q 222.76 173.60 223.16 174.53
  Q 223.37 175.01 223.06 175.43
  Q 213.70 187.85 201.73 197.76
  A 0.19 0.19 0.0 0 1 201.42 197.66
  L 194.25 171.43
  A 1.98 1.98 0.0 0 1 195.08 169.25
  Q 202.04 164.76 208.92 160.48
  C 210.77 159.33 211.35 158.13 212.06 156.20
  Q 212.11 156.05 212.19 156.19
  L 221.19 172.17
  Q 221.47 172.67 221.93 173.01
  Z"
/>
<path fill="#e7d88a" d="
  M 245.21 214.67
  L 205.78 214.67
  Q 205.37 214.67 205.28 214.27
  L 202.75 202.98
  A 1.50 1.49 -26.0 0 1 203.27 201.48
  Q 225.18 183.78 237.56 159.07
  C 237.93 158.34 238.06 156.91 238.81 156.07
  Q 239.26 155.57 239.43 156.22
  C 239.88 157.91 240.18 159.11 241.77 160.10
  Q 249.50 164.92 257.03 169.85
  A 0.82 0.81 -66.1 0 1 257.37 170.74
  Q 253.55 184.77 249.69 198.58
  C 248.30 203.56 247.30 208.79 246.08 213.98
  A 0.89 0.88 -83.1 0 1 245.21 214.67
  Z"
/>
<path fill="#ad8748" d="
  M 198.35 201.30
  L 181.71 240.60
  A 0.34 0.34 0.0 0 1 181.29 240.79
  L 168.42 236.52
  A 0.34 0.34 0.0 0 1 168.20 236.08
  L 190.77 175.90
  A 0.34 0.34 0.0 0 1 191.42 175.93
  L 198.37 201.08
  A 0.34 0.34 0.0 0 1 198.35 201.30
  Z"
/>
<path fill="#ad8748" d="
  M 260.56 175.98
  L 283.08 236.07
  A 0.34 0.34 0.0 0 1 282.86 236.51
  L 269.96 240.80
  A 0.34 0.34 0.0 0 1 269.54 240.61
  L 253.01 201.52
  A 0.34 0.34 0.0 0 1 252.99 201.30
  L 259.91 176.01
  A 0.34 0.34 0.0 0 1 260.56 175.98
  Z"
/>
<path fill="#e7d88a" d="
  M 244.48 233.89
  L 229.62 219.07
  A 0.34 0.34 0.0 0 1 229.86 218.49
  L 245.77 218.51
  A 0.34 0.34 0.0 0 1 246.10 218.76
  L 253.41 245.31
  A 0.34 0.34 0.0 0 1 253.08 245.74
  L 198.59 245.73
  A 0.34 0.34 0.0 0 1 198.26 245.30
  L 205.14 218.76
  A 0.34 0.34 0.0 0 1 205.47 218.51
  L 221.36 218.49
  A 0.34 0.34 0.0 0 1 221.60 219.07
  L 206.97 233.67
  A 0.34 0.34 0.0 0 0 206.96 234.13
  L 209.05 236.55
  A 0.34 0.34 0.0 0 0 209.55 236.57
  L 225.37 220.83
  A 0.34 0.34 0.0 0 1 225.85 220.83
  L 241.53 236.60
  A 0.34 0.34 0.0 0 0 242.00 236.61
  L 244.46 234.38
  A 0.34 0.34 0.0 0 0 244.48 233.89
  Z"
/>
<path fill="#b79554" fill-opacity="0.996" d="
  M 118.15 290.92
  Q 116.11 288.87 116.66 287.71
  Q 116.87 287.25 116.53 286.88
  Q 116.02 286.33 116.61 285.86
  A 0.45 0.44 -31.7 0 0 116.74 285.32
  L 116.49 284.79
  Q 116.29 284.36 116.59 283.99
  Q 117.15 283.29 116.52 282.79
  A 0.36 0.36 0.0 0 1 116.47 282.26
  Q 116.62 282.08 116.61 281.86
  Q 116.59 281.20 116.54 281.13
  Q 116.13 280.58 116.44 279.99
  Q 116.68 279.55 116.56 279.06
  Q 116.13 277.25 116.85 275.52
  Q 116.92 275.36 116.76 275.28
  Q 116.63 275.21 116.50 275.15
  Q 116.45 275.13 116.50 275.12
  Q 116.82 275.06 116.77 274.74
  C 133.65 273.29 151.11 281.64 156.07 298.53
  Q 156.22 299.05 155.70 299.18
  L 139.76 303.17
  Q 139.26 303.29 139.10 302.80
  Q 137.44 297.93 133.26 294.99
  Q 126.20 290.02 118.15 290.92
  Z"
/>
<path fill="#9b6e33" d="
  M 116.77 274.74
  Q 116.82 275.06 116.50 275.12
  Q 116.45 275.13 116.50 275.15
  Q 116.63 275.21 116.76 275.28
  Q 116.92 275.36 116.85 275.52
  Q 116.13 277.25 116.56 279.06
  Q 116.68 279.55 116.44 279.99
  Q 116.13 280.58 116.54 281.13
  Q 116.59 281.20 116.61 281.86
  Q 116.62 282.08 116.47 282.26
  A 0.36 0.36 0.0 0 0 116.52 282.79
  Q 117.15 283.29 116.59 283.99
  Q 116.29 284.36 116.49 284.79
  L 116.74 285.32
  A 0.45 0.44 -31.7 0 1 116.61 285.86
  Q 116.02 286.33 116.53 286.88
  Q 116.87 287.25 116.66 287.71
  Q 116.11 288.87 118.15 290.92
  C 91.43 294.01 94.33 335.35 121.54 334.49
  Q 120.67 335.32 120.15 336.44
  Q 120.01 336.76 120.26 336.99
  Q 120.52 337.23 120.90 337.03
  Q 121.30 336.81 121.06 337.20
  Q 120.74 337.71 120.18 338.06
  A 0.53 0.53 0.0 0 0 120.19 338.96
  Q 121.01 339.46 120.31 339.96
  Q 119.82 340.31 120.24 340.73
  L 120.64 341.13
  Q 121.08 341.57 120.57 341.93
  Q 119.73 342.52 120.50 343.24
  Q 120.77 343.49 120.51 343.75
  L 120.25 344.02
  A 0.50 0.50 0.0 0 0 120.27 344.76
  Q 121.11 345.48 120.29 346.03
  A 0.43 0.43 0.0 0 0 120.25 346.73
  Q 121.04 347.39 120.39 348.14
  Q 120.09 348.48 120.33 348.88
  Q 120.90 349.85 120.14 350.73
  C 95.10 350.53 78.31 329.85 82.49 305.00
  C 85.32 288.18 99.84 276.00 116.77 274.74
  Z"
/>
<path fill="#e7d88a" d="
  M 249.75 276.47
  C 250.16 290.25 249.80 304.19 249.82 318.00
  C 249.82 323.85 248.85 329.85 246.24 335.01
  C 240.57 346.22 228.76 351.05 216.65 350.82
  C 198.43 350.48 185.15 339.71 184.59 320.36
  Q 184.33 311.06 184.58 276.39
  Q 184.59 275.98 184.99 275.98
  L 201.50 275.99
  Q 202.03 275.99 202.03 276.51
  Q 202.08 295.92 201.97 315.24
  C 201.91 325.28 204.55 334.23 216.26 334.98
  C 226.80 335.66 232.59 327.61 232.50 317.75
  Q 232.31 296.99 232.22 276.23
  A 0.27 0.27 0.0 0 1 232.49 275.96
  L 249.26 275.99
  Q 249.73 275.99 249.75 276.47
  Z"
/>
<path fill="#c6aa65" d="
  M 308.17 296.57
  L 308.75 296.76
  Q 308.88 296.81 308.91 296.75
  Q 308.97 296.62 309.03 296.50
  A 0.07 0.07 0.0 0 1 309.16 296.53
  L 309.09 320.31
  Q 309.09 320.82 308.59 320.71
  Q 307.98 320.58 307.61 320.63
  L 298.98 330.32
  Q 298.62 330.73 298.62 331.28
  L 298.65 348.97
  A 0.36 0.36 0.0 0 1 298.28 349.33
  L 281.65 349.30
  Q 281.25 349.30 281.25 348.90
  L 281.28 276.46
  Q 281.28 275.96 281.79 275.96
  L 298.25 275.98
  A 0.39 0.38 1.5 0 1 298.63 276.37
  L 298.57 306.49
  Q 298.57 308.06 299.57 306.86
  L 308.17 296.57
  Z"
/>
<path fill="#ad8748" d="
  M 307.61 320.63
  Q 307.98 320.58 308.59 320.71
  Q 309.09 320.82 309.09 320.31
  L 309.16 296.53
  A 0.07 0.07 0.0 0 0 309.03 296.50
  Q 308.97 296.62 308.91 296.75
  Q 308.88 296.81 308.75 296.76
  L 308.17 296.57
  L 324.92 276.42
  Q 325.34 275.91 326.01 275.91
  L 346.55 275.99
  A 0.36 0.35 -69.1 0 1 346.81 276.58
  L 319.60 307.21
  Q 319.24 307.61 319.56 308.05
  L 349.06 348.74
  Q 349.50 349.33 348.76 349.34
  L 328.79 349.40
  Q 328.38 349.40 328.15 349.07
  L 307.61 320.63
  Z"
/>
<path fill="#b79554" fill-opacity="0.996" d="
  M 120.14 350.73
  Q 120.90 349.85 120.33 348.88
  Q 120.09 348.48 120.39 348.14
  Q 121.04 347.39 120.25 346.73
  A 0.43 0.43 0.0 0 1 120.29 346.03
  Q 121.11 345.48 120.27 344.76
  A 0.50 0.50 0.0 0 1 120.25 344.02
  L 120.51 343.75
  Q 120.77 343.49 120.50 343.24
  Q 119.73 342.52 120.57 341.93
  Q 121.08 341.57 120.64 341.13
  L 120.24 340.73
  Q 119.82 340.31 120.31 339.96
  Q 121.01 339.46 120.19 338.96
  A 0.53 0.53 0.0 0 1 120.18 338.06
  Q 120.74 337.71 121.06 337.20
  Q 121.30 336.81 120.90 337.03
  Q 120.52 337.23 120.26 336.99
  Q 120.01 336.76 120.15 336.44
  Q 120.67 335.32 121.54 334.49
  C 129.17 334.09 136.25 330.11 139.14 322.77
  Q 139.34 322.26 139.87 322.40
  L 155.54 326.42
  Q 156.07 326.55 155.97 327.09
  C 154.63 334.22 147.83 341.50 142.03 345.06
  Q 132.33 351.02 120.14 350.73
  Z"
/>
<ellipse fill="#c6aa65" cx="0.00" cy="0.00" transform="translate(169.11,340.53) rotate(-5.9)" rx="9.81" ry="9.55"/>
<ellipse fill="#e7d88a" cx="0.00" cy="0.00" transform="translate(265.28,340.55) rotate(-1.8)" rx="9.78" ry="9.52"/>
<ellipse fill="#9b6e33" cx="0.00" cy="0.00" transform="translate(359.70,340.57) rotate(-2.5)" rx="9.82" ry="9.55"/>
<path fill="#ad8748" d="
  M 112.36 458.43
  C 113.26 459.04 114.73 459.36 115.44 460.01
  Q 117.08 461.50 115.14 460.45
  C 110.73 458.07 106.78 455.20 102.56 452.56
  C 93.39 446.83 84.96 440.02 76.94 432.91
  Q 56.67 414.95 41.59 392.52
  C 36.76 385.34 32.91 379.53 29.37 372.57
  C 28.80 371.45 28.03 370.61 27.53 369.53
  Q 24.70 363.43 21.87 357.34
  Q 21.82 357.22 21.93 357.16
  L 21.94 357.16
  Q 22.06 357.10 22.12 357.22
  Q 24.22 361.49 26.33 365.75
  C 29.49 372.13 33.47 377.98 37.26 384.01
  Q 61.23 422.13 97.82 448.38
  Q 105.00 453.53 112.36 458.43
  Z"
/>
<path fill="#9b6e33" d="
  M 409.46 386.00
  L 422.39 363.50
  Q 422.50 363.32 422.68 363.42
  L 422.68 363.43
  Q 422.86 363.52 422.77 363.71
  Q 417.22 374.06 411.09 384.09
  Q 410.40 385.22 409.46 386.00
  Z"
/>
<path fill="#ad8748" d="
  M 138.30 367.63
  Q 138.78 364.83 141.58 365.10
  Q 141.67 365.11 141.66 365.19
  L 141.65 365.53
  Q 141.64 365.75 141.43 365.75
  Q 139.52 365.72 139.29 367.64
  Q 139.21 368.24 139.82 368.24
  L 141.49 368.25
  Q 141.70 368.25 141.73 368.46
  L 141.77 368.75
  Q 141.78 368.88 141.66 368.93
  Q 140.80 369.29 139.88 369.26
  Q 139.32 369.25 139.33 369.81
  L 139.38 374.55
  Q 139.39 374.99 138.95 374.91
  L 138.68 374.85
  Q 138.38 374.79 138.38 374.48
  L 138.42 370.28
  Q 138.43 369.81 138.03 369.55
  L 137.38 369.13
  A 0.48 0.48 0.0 0 1 137.49 368.27
  L 137.87 368.14
  Q 138.23 368.02 138.30 367.63
  Z"
/>
<path fill="#ad8748" d="
  M 156.55 368.41
  L 156.52 365.45
  Q 156.52 365.32 156.64 365.31
  L 156.93 365.28
  Q 157.48 365.22 157.48 365.78
  L 157.51 373.85
  Q 157.51 374.27 157.11 374.36
  L 153.89 375.11
  Q 153.42 375.22 152.97 375.04
  C 148.37 373.14 150.88 366.34 155.99 368.77
  Q 156.56 369.05 156.55 368.41
  Z
  M 156.44 371.68
  A 2.41 2.41 0.0 0 0 154.03 369.27
  A 2.41 2.41 0.0 0 0 151.62 371.68
  A 2.41 2.41 0.0 0 0 154.03 374.09
  A 2.41 2.41 0.0 0 0 156.44 371.68
  Z"
/>
<ellipse fill="#e7d88a" cx="0.00" cy="0.00" transform="translate(195.32,366.30) rotate(132.4)" rx="1.31" ry="0.47"/>
<path fill="#c6aa65" d="
  M 283.64 369.03
  A 0.35 0.35 0.0 0 0 284.22 368.77
  L 284.28 365.63
  A 0.32 0.31 85.4 0 1 284.53 365.33
  L 284.85 365.26
  Q 285.25 365.18 285.25 365.59
  L 285.25 374.43
  Q 285.25 375.00 284.70 374.87
  Q 284.42 374.81 284.21 374.60
  Q 283.82 374.22 283.34 374.48
  C 278.30 377.30 275.95 369.38 281.01 368.37
  Q 282.52 368.07 283.64 369.03
  Z
  M 284.17 371.66
  A 2.42 2.42 0.0 0 0 281.75 369.24
  A 2.42 2.42 0.0 0 0 279.33 371.66
  A 2.42 2.42 0.0 0 0 281.75 374.08
  A 2.42 2.42 0.0 0 0 284.17 371.66
  Z"
/>
<path fill="#ad8748" d="
  M 300.31 370.26
  Q 302.50 368.48 304.38 365.89
  Q 304.74 365.40 305.39 365.54
  Q 306.00 365.67 305.58 366.13
  L 302.89 369.01
  A 1.16 1.16 0.0 0 0 302.85 370.54
  L 306.06 374.41
  Q 306.25 374.63 305.99 374.77
  L 305.71 374.92
  A 0.49 0.49 0.0 0 1 305.11 374.82
  L 301.92 371.27
  Q 301.63 370.95 301.26 371.17
  Q 299.26 372.32 299.86 374.57
  Q 299.99 375.04 299.51 374.96
  L 298.82 374.84
  A 0.29 0.28 4.8 0 1 298.58 374.56
  L 298.60 366.13
  Q 298.60 365.57 299.15 365.55
  L 299.50 365.54
  Q 299.77 365.53 299.77 365.80
  L 299.76 370.00
  Q 299.76 370.71 300.31 370.26
  Z"
/>
<path fill="#ad8748" d="
  M 118.59 368.20
  C 116.51 365.61 112.09 365.96 111.53 369.43
  C 110.86 373.61 115.93 375.97 118.52 372.29
  A 0.45 0.44 35.6 0 1 119.15 372.19
  L 119.37 372.36
  Q 119.52 372.47 119.41 372.62
  Q 116.55 376.27 113.27 374.60
  C 107.18 371.50 112.19 362.48 118.59 366.63
  Q 119.49 367.21 119.19 368.09
  Q 118.99 368.70 118.59 368.20
  Z"
/>
<path fill="#e7d88a" d="
  M 217.88 372.27
  L 218.05 365.95
  A 0.32 0.32 0.0 0 1 218.22 365.67
  L 218.49 365.53
  A 0.41 0.41 0.0 0 1 219.09 365.87
  C 219.23 368.58 220.11 373.70 216.76 374.83
  C 210.68 376.87 211.09 369.42 211.38 366.06
  A 0.57 0.56 -87.2 0 1 211.94 365.55
  L 212.21 365.56
  A 0.27 0.26 0.0 0 1 212.48 365.82
  C 212.53 368.61 211.25 375.58 216.76 373.77
  A 1.62 1.61 81.9 0 0 217.88 372.27
  Z"
/>
<path fill="#9b6e33" d="
  M 330.74 369.75
  L 330.77 373.29
  A 0.73 0.73 0.0 0 0 331.54 374.01
  L 332.56 373.96
  Q 332.94 373.94 332.90 374.32
  L 332.85 374.72
  A 0.25 0.25 0.0 0 1 332.63 374.94
  C 328.84 375.30 329.67 372.11 329.47 369.79
  Q 329.43 369.31 328.95 369.23
  Q 328.68 369.19 328.45 369.01
  A 0.38 0.38 0.0 0 1 328.64 368.33
  Q 329.97 368.19 329.49 366.78
  A 0.50 0.50 0.0 0 1 329.96 366.11
  Q 330.26 366.11 330.46 366.24
  Q 330.75 366.42 330.78 366.76
  Q 330.81 367.10 330.70 367.42
  A 0.56 0.55 -79.1 0 0 331.19 368.15
  L 332.75 368.26
  Q 332.98 368.27 332.97 368.50
  L 332.94 368.99
  Q 332.93 369.21 332.72 369.24
  Q 332.04 369.35 331.35 369.23
  Q 330.73 369.13 330.74 369.75
  Z"
/>
<path fill="#e7d88a" d="
  M 201.05 368.70
  A 0.46 0.45 -26.9 0 0 201.79 368.94
  Q 204.01 367.08 205.79 369.75
  Q 206.53 370.86 206.11 374.59
  A 0.36 0.35 -81.4 0 1 205.70 374.90
  L 205.28 374.84
  Q 205.01 374.80 205.00 374.53
  L 204.97 370.81
  A 1.64 1.63 -8.4 0 0 202.87 369.26
  C 200.48 369.98 200.96 372.81 200.98 374.68
  Q 200.98 374.95 200.72 374.95
  L 200.02 374.96
  Q 199.82 374.96 199.83 374.77
  L 199.98 368.52
  A 0.46 0.46 0.0 0 1 200.73 368.18
  Q 200.98 368.39 201.05 368.70
  Z"
/>
<path fill="#e7d88a" d="
  M 222.81 368.78
  Q 223.55 368.31 224.33 368.66
  A 0.28 0.28 0.0 0 1 224.23 369.20
  Q 223.23 369.26 222.56 370.05
  Q 222.23 370.43 222.20 370.94
  L 221.93 374.65
  Q 221.91 374.97 221.59 374.96
  L 221.27 374.95
  A 0.27 0.27 0.0 0 1 221.01 374.68
  L 220.99 368.53
  A 0.39 0.39 0.0 0 1 221.59 368.20
  Q 221.83 368.36 221.97 368.59
  A 0.61 0.60 -32.0 0 0 222.81 368.78
  Z"
/>
<path fill="#c6aa65" d="
  M 288.10 372.35
  C 288.39 373.88 289.89 374.81 291.34 373.89
  Q 292.04 373.45 292.28 373.40
  Q 294.44 373.00 292.66 374.28
  C 286.94 378.36 284.16 367.71 290.83 368.20
  Q 293.00 368.36 293.50 370.73
  A 0.99 0.98 -5.1 0 1 292.51 371.91
  L 288.57 371.80
  Q 287.99 371.79 288.10 372.35
  Z
  M 288.38 371.15
  L 292.10 371.07
  A 0.16 0.16 0.0 0 0 292.26 370.90
  L 292.26 370.85
  A 1.89 1.77 -1.3 0 0 290.33 369.13
  L 290.07 369.13
  A 1.89 1.77 -1.3 0 0 288.22 370.95
  L 288.22 371.00
  A 0.16 0.16 0.0 0 0 288.38 371.15
  Z"
/>
<path fill="#9b6e33" d="
  M 335.73 372.13
  Q 334.89 372.35 335.49 372.98
  Q 337.67 375.25 339.76 373.05
  A 0.28 0.28 0.0 0 1 340.00 372.97
  L 340.57 373.07
  Q 340.83 373.12 340.69 373.34
  C 338.50 376.78 333.51 375.03 334.00 370.99
  C 334.42 367.41 340.06 367.14 341.04 371.17
  A 0.66 0.66 0.0 0 1 340.28 371.98
  Q 337.99 371.57 335.73 372.13
  Z
  M 335.33 370.29
  A 0.41 0.41 0.0 0 0 335.58 371.04
  L 339.32 370.95
  A 0.41 0.41 0.0 0 0 339.52 370.19
  L 337.62 369.02
  A 0.41 0.41 0.0 0 0 337.18 369.03
  L 335.33 370.29
  Z"
/>
<path fill="#ad8748" d="
  M 127.86 371.67
  A 3.44 3.44 0.0 0 1 124.42 375.11
  A 3.44 3.44 0.0 0 1 120.98 371.67
  A 3.44 3.44 0.0 0 1 124.42 368.23
  A 3.44 3.44 0.0 0 1 127.86 371.67
  Z
  M 126.90 371.66
  A 2.43 2.43 0.0 0 0 124.47 369.23
  A 2.43 2.43 0.0 0 0 122.04 371.66
  A 2.43 2.43 0.0 0 0 124.47 374.09
  A 2.43 2.43 0.0 0 0 126.90 371.66
  Z"
/>
<path fill="#ad8748" d="
  M 134.41 370.11
  A 1.15 1.15 0.0 0 0 133.22 369.25
  C 129.90 369.45 130.49 372.26 130.63 374.46
  Q 130.67 374.92 130.21 374.92
  L 129.86 374.91
  Q 129.48 374.91 129.48 374.52
  L 129.52 368.73
  A 0.42 0.41 17.2 0 1 130.17 368.39
  Q 131.22 369.09 132.34 368.22
  A 1.82 1.82 0.0 0 1 135.21 369.13
  Q 136.03 371.89 135.70 374.70
  Q 135.67 374.96 135.41 374.92
  L 134.97 374.87
  A 0.32 0.31 7.2 0 1 134.69 374.52
  Q 134.97 372.28 134.41 370.11
  Z"
/>
<path fill="#ad8748" d="
  M 144.43 371.85
  A 0.63 0.63 0.0 0 0 143.93 372.86
  Q 145.90 375.40 148.50 373.14
  A 0.32 0.32 0.0 0 1 149.03 373.39
  L 149.03 373.88
  Q 149.03 374.02 148.92 374.09
  C 146.31 375.84 142.50 375.28 142.63 371.64
  C 142.77 367.45 148.24 366.89 149.34 370.99
  A 0.65 0.64 82.4 0 1 148.72 371.81
  L 144.43 371.85
  Z
  M 144.37 371.23
  L 147.49 371.13
  A 0.40 0.40 0.0 0 0 147.88 370.72
  L 147.88 370.63
  A 1.76 1.61 -1.8 0 0 146.07 369.07
  L 145.67 369.09
  A 1.76 1.61 -1.8 0 0 143.96 370.75
  L 143.96 370.84
  A 0.40 0.40 0.0 0 0 144.37 371.23
  Z"
/>
<path fill="#c6aa65" d="
  M 160.68 371.83
  A 0.47 0.47 0.0 0 0 160.29 372.56
  Q 162.28 375.57 164.88 373.07
  Q 165.10 372.86 165.32 373.07
  L 165.52 373.26
  Q 165.67 373.39 165.54 373.53
  C 163.87 375.48 161.09 375.78 159.64 373.46
  C 156.42 368.30 166.40 366.18 165.86 371.37
  Q 165.81 371.85 165.33 371.85
  L 160.68 371.83
  Z
  M 160.57 371.24
  L 164.65 370.89
  A 0.14 0.14 0.0 0 0 164.78 370.74
  L 164.78 370.69
  A 2.03 1.73 -4.9 0 0 162.61 369.14
  L 162.29 369.17
  A 2.03 1.73 -4.9 0 0 160.41 371.06
  L 160.42 371.11
  A 0.14 0.14 0.0 0 0 160.57 371.24
  Z"
/>
<path fill="#c6aa65" d="
  M 168.55 370.45
  L 168.48 374.54
  Q 168.48 374.90 168.11 374.90
  L 167.79 374.89
  A 0.31 0.31 0.0 0 1 167.49 374.58
  L 167.52 368.98
  Q 167.52 368.43 168.05 368.56
  Q 169.28 368.87 170.46 368.26
  A 0.26 0.26 0.0 0 1 170.82 368.41
  L 170.93 368.71
  Q 170.96 368.80 170.88 368.84
  L 169.11 369.61
  Q 168.56 369.85 168.55 370.45
  Z"
/>
<path fill="#c6aa65" d="
  M 176.96 374.61
  Q 175.21 375.50 173.63 374.70
  C 169.63 372.66 172.54 366.46 177.12 368.79
  Q 177.60 369.03 178.00 368.68
  L 178.28 368.43
  A 0.34 0.34 0.0 0 1 178.85 368.68
  L 178.88 374.53
  A 0.37 0.37 0.0 0 1 178.35 374.86
  L 177.84 374.60
  Q 177.40 374.38 176.96 374.61
  Z
  M 177.77 371.67
  A 2.43 2.43 0.0 0 0 175.34 369.24
  A 2.43 2.43 0.0 0 0 172.91 371.67
  A 2.43 2.43 0.0 0 0 175.34 374.10
  A 2.43 2.43 0.0 0 0 177.77 371.67
  Z"
/>
<path fill="#c6aa65" d="
  M 184.13 369.16
  C 180.70 369.31 180.73 373.12 183.64 374.20
  A 1.00 1.00 0.0 0 0 184.47 374.14
  L 186.19 373.15
  Q 187.02 372.68 186.49 373.47
  Q 185.01 375.66 183.24 375.09
  C 177.33 373.20 181.82 365.28 186.55 369.39
  Q 186.85 369.65 186.66 370.00
  L 186.52 370.26
  Q 186.27 370.72 185.89 370.37
  L 184.87 369.44
  Q 184.56 369.15 184.13 369.16
  Z"
/>
<rect fill="#e7d88a" x="-0.52" y="-3.29" transform="translate(189.12,371.58) rotate(0.5)" width="1.04" height="6.58" rx="0.47"/>
<path fill="#e7d88a" d="
  M 198.29 371.63
  A 3.47 3.47 0.0 0 1 194.82 375.10
  A 3.47 3.47 0.0 0 1 191.35 371.63
  A 3.47 3.47 0.0 0 1 194.82 368.16
  A 3.47 3.47 0.0 0 1 198.29 371.63
  Z
  M 197.21 371.63
  A 2.42 2.42 0.0 0 0 194.79 369.21
  A 2.42 2.42 0.0 0 0 192.37 371.63
  A 2.42 2.42 0.0 0 0 194.79 374.05
  A 2.42 2.42 0.0 0 0 197.21 371.63
  Z"
/>
<path fill="#e7d88a" d="
  M 229.97 374.61
  C 225.96 376.89 225.21 371.11 225.68 368.74
  A 0.53 0.53 0.0 0 1 226.19 368.31
  L 226.68 368.30
  Q 227.09 368.29 227.00 368.69
  Q 226.62 370.54 226.92 372.37
  A 1.98 1.97 89.6 0 0 228.58 374.01
  C 231.25 374.42 230.89 370.25 230.94 368.73
  A 0.49 0.49 0.0 0 1 231.43 368.26
  L 231.74 368.26
  Q 232.01 368.25 232.01 368.52
  L 231.99 374.52
  Q 231.99 375.28 231.35 374.87
  L 231.01 374.64
  Q 230.50 374.31 229.97 374.61
  Z"
/>
<path fill="#e7d88a" d="
  M 238.96 374.38
  C 232.86 377.27 230.99 367.60 237.69 368.39
  Q 238.93 368.54 240.19 368.60
  Q 240.64 368.61 240.60 369.06
  Q 240.36 371.83 240.51 373.50
  C 240.88 377.55 237.29 379.14 234.27 376.83
  A 0.34 0.34 0.0 0 1 234.46 376.22
  Q 235.21 376.20 235.79 376.69
  A 1.38 1.36 63.0 0 0 236.78 377.02
  Q 238.98 376.89 239.41 374.73
  Q 239.53 374.10 238.96 374.38
  Z
  M 239.27 371.52
  A 2.33 2.33 0.0 0 0 236.94 369.19
  A 2.33 2.33 0.0 0 0 234.61 371.52
  A 2.33 2.33 0.0 0 0 236.94 373.85
  A 2.33 2.33 0.0 0 0 239.27 371.52
  Z"
/>
<path fill="#e7d88a" d="
  M 244.91 373.99
  C 248.02 374.46 247.52 370.42 247.57 368.55
  A 0.32 0.32 0.0 0 1 247.93 368.24
  L 248.28 368.28
  Q 248.68 368.34 248.68 368.74
  L 248.64 374.06
  Q 248.64 374.60 248.09 374.59
  Q 246.78 374.55 245.48 375.05
  A 1.83 1.83 0.0 0 1 243.22 374.22
  Q 241.75 371.52 242.48 368.44
  Q 242.55 368.14 242.83 368.26
  L 243.29 368.45
  Q 243.46 368.52 243.43 368.71
  Q 243.01 371.19 244.07 373.38
  Q 244.33 373.91 244.91 373.99
  Z"
/>
<path fill="#e7d88a" d="
  M 256.08 368.67
  Q 256.34 368.46 256.66 368.36
  Q 257.22 368.19 257.22 368.77
  L 257.26 374.46
  Q 257.26 375.07 256.67 374.90
  Q 256.34 374.80 256.08 374.59
  Q 255.65 374.24 255.17 374.51
  C 252.24 376.17 249.81 373.88 250.26 370.99
  C 250.57 368.92 253.22 367.42 255.19 368.73
  Q 255.66 369.04 256.08 368.67
  Z
  M 256.16 371.64
  A 2.43 2.43 0.0 0 0 253.73 369.21
  A 2.43 2.43 0.0 0 0 251.30 371.64
  A 2.43 2.43 0.0 0 0 253.73 374.07
  A 2.43 2.43 0.0 0 0 256.16 371.64
  Z"
/>
<path fill="#e7d88a" d="
  M 262.33 372.86
  Q 263.26 371.36 263.91 368.97
  Q 264.11 368.23 264.79 368.37
  Q 265.28 368.46 265.08 368.92
  L 261.27 377.66
  Q 261.14 377.95 260.86 377.81
  L 260.54 377.64
  Q 260.32 377.53 260.44 377.31
  C 262.20 374.23 259.95 371.61 258.61 368.79
  Q 258.37 368.30 258.91 368.37
  L 259.44 368.43
  Q 259.72 368.47 259.82 368.73
  L 261.45 372.79
  A 0.50 0.49 -40.1 0 0 262.33 372.86
  Z"
/>
<path fill="#e7d88a" d="
  M 272.17 368.69
  L 272.52 368.39
  Q 273.13 367.86 273.13 368.67
  L 273.12 374.34
  Q 273.12 375.11 272.41 374.80
  Q 272.20 374.71 272.07 374.53
  Q 271.73 374.06 271.25 374.38
  C 268.42 376.24 265.37 373.68 266.24 370.70
  C 266.90 368.44 269.30 367.72 271.33 368.78
  Q 271.78 369.02 272.17 368.69
  Z
  M 272.02 371.66
  A 2.42 2.42 0.0 0 0 269.60 369.24
  A 2.42 2.42 0.0 0 0 267.18 371.66
  A 2.42 2.42 0.0 0 0 269.60 374.08
  A 2.42 2.42 0.0 0 0 272.02 371.66
  Z"
/>
<path fill="#ad8748" d="
  M 312.86 368.65
  L 313.22 368.45
  Q 313.68 368.19 313.68 368.72
  L 313.69 374.32
  Q 313.69 374.84 313.21 374.66
  Q 313.05 374.61 312.93 374.49
  Q 312.61 374.19 312.21 374.40
  Q 308.14 376.58 306.61 372.23
  A 1.05 1.04 49.4 0 1 306.67 371.40
  Q 307.05 370.71 307.11 369.91
  A 1.06 1.05 72.9 0 1 307.49 369.19
  Q 309.53 367.49 312.00 368.68
  Q 312.43 368.89 312.86 368.65
  Z
  M 312.52 371.70
  A 2.41 2.41 0.0 0 0 310.11 369.29
  A 2.41 2.41 0.0 0 0 307.70 371.70
  A 2.41 2.41 0.0 0 0 310.11 374.11
  A 2.41 2.41 0.0 0 0 312.52 371.70
  Z"
/>
<path fill="#ad8748" d="
  M 316.96 370.20
  Q 316.57 372.23 316.93 374.25
  Q 317.02 374.80 316.47 374.85
  L 315.98 374.89
  Q 315.52 374.93 315.53 374.47
  L 315.65 368.88
  Q 315.66 368.42 316.12 368.44
  L 318.85 368.51
  A 0.33 0.33 0.0 0 1 318.94 369.16
  L 317.51 369.59
  Q 317.05 369.73 316.96 370.20
  Z"
/>
<path fill="#ad8748" d="
  M 325.93 368.69
  L 326.27 368.38
  A 0.42 0.42 0.0 0 1 326.98 368.69
  L 327.00 374.53
  Q 327.00 375.15 326.43 374.90
  Q 326.05 374.73 325.75 374.41
  Q 325.42 374.04 325.03 374.35
  C 321.34 377.35 317.90 371.24 321.62 368.64
  Q 323.34 367.43 325.14 368.74
  Q 325.55 369.04 325.93 368.69
  Z
  M 325.88 371.64
  A 2.38 2.38 0.0 0 0 323.50 369.26
  A 2.38 2.38 0.0 0 0 321.12 371.64
  A 2.38 2.38 0.0 0 0 323.50 374.02
  A 2.38 2.38 0.0 0 0 325.88 371.64
  Z"
/>
<path fill="#9b6e33" d="
  M 409.46 386.00
  Q 408.34 388.42 406.59 390.59
  Q 406.51 390.69 406.35 390.67
  Q 406.16 390.64 406.27 390.49
  L 409.46 386.00
  Z"
/>
<rect fill="#ad8748" x="-9.90" y="-0.40" transform="translate(361.81,420.53) rotate(-41.4)" width="19.80" height="0.80" rx="0.30"/>
<path fill="#c6aa65" d="
  M 392.60 419.87
  Q 388.50 424.15 384.32 428.33
  Q 343.72 468.99 288.45 485.12
  Q 269.14 490.75 255.99 492.35
  C 246.36 493.52 236.31 494.37 226.62 493.55
  Q 223.43 493.28 226.57 492.66
  Q 228.05 492.37 230.58 492.23
  Q 270.56 490.04 307.63 475.05
  Q 307.74 475.00 307.70 474.88
  L 307.70 474.88
  Q 307.65 474.76 307.53 474.81
  Q 274.28 487.53 238.82 489.71
  C 231.73 490.14 223.96 489.93 216.50 489.82
  Q 205.43 489.66 194.56 487.64
  Q 194.41 487.61 194.42 487.45
  L 194.42 487.45
  Q 194.44 487.29 194.60 487.30
  C 197.13 487.44 199.59 488.11 201.99 488.22
  C 207.15 488.46 212.48 489.20 217.35 489.20
  Q 232.47 489.22 244.74 487.94
  Q 319.62 480.15 374.97 429.21
  L 376.25 428.92
  Q 376.91 428.77 376.63 429.39
  L 375.75 431.30
  Q 357.21 448.11 336.15 461.58
  Q 336.02 461.66 336.10 461.79
  L 336.10 461.79
  Q 336.18 461.92 336.31 461.84
  C 343.90 457.18 351.26 453.31 358.63 447.37
  Q 364.72 442.46 370.72 437.45
  Q 382.75 427.41 392.93 415.73
  Q 393.70 415.22 394.36 415.12
  Q 394.91 415.04 394.81 415.59
  Q 394.77 415.84 394.70 416.08
  Q 394.57 416.56 394.19 416.88
  Q 392.45 418.36 392.60 419.87
  Z"
/>
<ellipse fill="#9b6e33" cx="0.00" cy="0.00" transform="translate(124.67,445.49) rotate(27.9)" rx="1.54" ry="0.20"/>
<path fill="#9b6e33" d="
  M 105.76 445.28
  C 106.88 445.56 107.78 446.86 108.99 447.41
  Q 109.56 447.67 108.93 447.63
  C 107.69 447.56 106.71 446.23 105.63 445.57
  Q 104.76 445.03 105.76 445.28
  Z"
/>
<path fill="#ad8748" d="
  M 168.28 474.83
  Q 169.96 475.32 171.72 475.53
  Q 171.91 475.56 171.87 475.75
  L 171.87 475.75
  Q 171.83 475.94 171.65 475.90
  Q 168.00 475.01 164.36 474.08
  C 159.74 472.90 155.13 470.97 150.46 469.40
  Q 147.12 468.28 143.69 466.73
  C 136.94 463.69 130.66 460.98 123.81 456.94
  C 120.96 455.26 116.63 453.34 113.52 450.89
  Q 112.32 449.94 113.67 450.67
  Q 118.99 453.54 125.21 456.97
  Q 145.76 468.29 168.28 474.83
  Z"
/>
<ellipse fill="#c6aa65" cx="0.00" cy="0.00" transform="translate(296.55,460.02) rotate(-20.6)" rx="4.00" ry="0.29"/>
<ellipse fill="#c6aa65" cx="0.00" cy="0.00" transform="translate(124.14,465.26) rotate(29.2)" rx="1.93" ry="0.21"/>
<ellipse fill="#c6aa65" cx="0.00" cy="0.00" transform="translate(132.38,469.38) rotate(30.4)" rx="1.73" ry="0.22"/>
<ellipse fill="#c6aa65" cx="0.00" cy="0.00" transform="translate(228.11,472.48) rotate(0.3)" rx="4.03" ry="0.23"/>
<path fill="#c6aa65" d="
  M 153.09 477.91
  C 161.21 480.56 167.84 482.73 177.53 485.03
  A 0.09 0.09 0.0 0 1 177.57 485.17
  Q 177.47 485.28 177.37 485.39
  Q 177.31 485.46 177.21 485.44
  Q 158.39 482.04 141.27 473.52
  Q 141.02 473.40 141.08 473.26
  L 141.09 473.25
  Q 141.16 473.08 141.33 473.15
  C 145.24 474.73 149.20 476.63 153.09 477.91
  Z"
/>
<ellipse fill="#c6aa65" cx="0.00" cy="0.00" transform="translate(179.76,477.82) rotate(12.3)" rx="6.71" ry="0.26"/>
<path fill="#c6aa65" d="
  M 191.95 480.30
  Q 192.16 480.31 192.38 480.37
  A 0.03 0.03 0.0 0 1 192.37 480.43
  Q 190.76 480.40 189.32 479.65
  Q 189.23 479.61 189.34 479.40
  L 189.35 479.40
  Q 189.43 479.23 189.60 479.31
  Q 190.58 479.73 191.57 480.21
  Q 191.73 480.29 191.95 480.30
  Z"
/>
<ellipse fill="#e7d88a" cx="0.00" cy="0.00" transform="translate(256.41,484.01) rotate(-7.4)" rx="3.59" ry="0.13"/>
<path fill="#e7d88a" d="
  M 215.82 486.04
  Q 215.68 486.03 215.68 485.89
  L 215.69 485.89
  Q 215.69 485.75 215.83 485.75
  C 222.04 485.90 228.23 486.14 234.38 485.79
  Q 242.63 485.32 250.47 484.64
  Q 251.74 484.53 250.50 484.83
  Q 245.69 486.00 240.50 485.63
  C 239.28 485.54 237.54 486.11 236.17 486.15
  Q 225.99 486.45 215.82 486.04
  Z"
/>
</svg>
