<?xml version="1.0" encoding="UTF-8" standalone="no"?>
<!DOCTYPE svg PUBLIC "-//W3C//DTD SVG 1.1//EN" "http://www.w3.org/Graphics/SVG/1.1/DTD/svg11.dtd">
<svg xmlns="http://www.w3.org/2000/svg" version="1.1" viewBox="0.00 0.00 492.00 507.00">
<g stroke-width="2.00" fill="none" stroke-linecap="butt">
<path stroke="#cdb46c" vector-effect="non-scaling-stroke" d="
  M 370.02 40.48
  Q 369.15 42.64 367.74 44.11"
/>
<path stroke="#decc81" vector-effect="non-scaling-stroke" d="
  M 328.17 24.46
  L 327.03 35.24"
/>
<path stroke="#decc81" vector-effect="non-scaling-stroke" d="
  M 167.24 30.19
  Q 164.93 25.48 166.02 16.98"
/>
<path stroke="#c8ad67" vector-effect="non-scaling-stroke" d="
  M 133.12 45.13
  Q 131.19 39.63 132.42 31.45"
/>
<path stroke="#c8ad67" vector-effect="non-scaling-stroke" d="
  M 365.56 43.63
  L 364.93 55.43"
/>
<path stroke="#a37b3d" vector-effect="non-scaling-stroke" d="
  M 432.33 94.23
  L 430.29 99.39
  Q 430.12 99.81 429.73 100.04
  L 429.28 100.30
  Q 428.78 100.58 429.15 101.03
  L 431.89 104.38"
/>
<path stroke="#a37b3d" vector-effect="non-scaling-stroke" d="
  M 433.42 106.97
  L 431.34 122.79"
/>
<path stroke="#b79553" vector-effect="non-scaling-stroke" d="
  M 379.83 66.56
  L 380.68 53.66"
/>
<path stroke="#b79553" vector-effect="non-scaling-stroke" d="
  M 92.20 73.54
  Q 89.98 71.56 91.13 67.39
  Q 92.00 64.22 90.66 59.12"
/>
<path stroke="#ac8646" vector-effect="non-scaling-stroke" d="
  M 387.83 454.78
  Q 386.55 453.94 385.82 452.69"
/>
<path stroke="#ac8646" vector-effect="non-scaling-stroke" d="
  M 387.94 449.29
  Q 387.70 449.38 387.48 449.37
  Q 386.88 449.36 386.88 448.77
  Q 386.89 448.60 386.88 448.44
  A 0.50 0.49 -86.6 0 0 386.46 447.96
  L 385.96 447.88"
/>
<path stroke="#a37b3d" vector-effect="non-scaling-stroke" d="
  M 430.29 398.48
  Q 430.06 397.58 429.16 397.22
  A 0.76 0.75 -79.1 0 1 428.69 396.52
  L 428.68 384.45
  Q 428.68 383.92 428.35 383.51
  Q 427.81 382.84 426.96 382.67"
/>
<path stroke="#a37b3d" vector-effect="non-scaling-stroke" d="
  M 46.44 125.22
  L 45.12 109.18"
/>
<path stroke="#d5bf76" vector-effect="non-scaling-stroke" d="
  M 344.74 479.96
  Q 343.44 479.55 342.23 479.04
  C 340.39 478.26 337.76 478.68 337.07 476.26"
/>
<path stroke="#decc81" vector-effect="non-scaling-stroke" d="
  M 224.90 170.78
  L 224.41 137.78"
/>
<path stroke="#c8ad67" vector-effect="non-scaling-stroke" d="
  M 214.20 166.37
  Q 216.25 155.04 214.74 143.79"
/>
<path stroke="#decc81" vector-effect="non-scaling-stroke" d="
  M 262.83 138.14
  L 261.89 195.93"
/>
<path stroke="#c8ad67" vector-effect="non-scaling-stroke" d="
  M 271.97 143.82
  Q 270.87 156.99 271.60 170.80"
/>
<path stroke="#a37b3d" vector-effect="non-scaling-stroke" d="
  M 198.46 217.65
  Q 197.24 216.82 197.33 214.50
  Q 198.07 194.91 196.83 177.51"
/>
<path stroke="#b79553" vector-effect="non-scaling-stroke" d="
  M 285.49 165.05
  Q 283.85 172.99 284.24 179.00
  Q 285.29 195.38 284.49 207.90"
/>
<path stroke="#a37b3d" vector-effect="non-scaling-stroke" d="
  M 297.74 197.60
  Q 296.74 210.17 297.39 222.57"
/>
<path stroke="#b79553" vector-effect="non-scaling-stroke" d="
  M 143.51 263.19
  L 143.74 282.79"
/>
<path stroke="#a37b3d" vector-effect="non-scaling-stroke" d="
  M 120.43 280.81
  Q 119.04 271.48 119.89 262.33"
/>
<path stroke="#b79553" vector-effect="non-scaling-stroke" d="
  M 151.11 340.88
  Q 148.86 338.05 148.91 336.50
  C 149.04 332.69 148.98 329.36 149.17 325.08
  Q 149.29 322.38 148.56 319.76"
/>
<path stroke="#a37b3d" vector-effect="non-scaling-stroke" d="
  M 119.35 325.87
  Q 120.39 335.86 118.89 344.53"
/>
<path stroke="#b79553" vector-effect="non-scaling-stroke" d="
  M 338.26 262.78
  L 337.98 344.19"
/>
<path stroke="#a37b3d" vector-effect="non-scaling-stroke" d="
  M 426.0483 97.0493
  A 3.10 0.34 51.3 0 0 424.3753 94.4174
  A 3.10 0.34 51.3 0 0 422.1717 92.2107
  A 3.10 0.34 51.3 0 0 423.8447 94.8426
  A 3.10 0.34 51.3 0 0 426.0483 97.0493"
/>
</g>
<path fill="#ebde8f" d="
  M 370.02 40.48
  Q 369.15 42.64 367.74 44.11
  C 344.37 29.83 320.63 18.81 293.81 12.73
  C 290.45 11.97 285.56 11.38 281.49 10.28
  Q 276.95 9.04 272.76 9.33
  Q 271.02 9.45 272.75 9.67
  Q 301.15 13.36 328.17 24.46
  L 327.03 35.24
  C 309.08 28.59 294.12 24.29 276.32 20.88
  Q 266.96 19.09 257.04 18.51
  Q 243.87 17.74 233.25 17.54
  C 220.03 17.30 206.70 20.39 193.50 22.71
  Q 185.70 24.07 167.24 30.19
  Q 164.93 25.48 166.02 16.98
  Q 182.40 11.77 192.50 9.68
  C 253.98 -3.06 316.40 8.01 370.02 40.48
  Z"
/>
<path fill="#d1ba72" d="
  M 166.02 16.98
  Q 164.93 25.48 167.24 30.19
  Q 150.70 35.80 133.12 45.13
  Q 131.19 39.63 132.42 31.45
  Q 147.78 23.17 166.02 16.98
  Z"
/>
<path fill="#d1ba72" d="
  M 328.17 24.46
  Q 348.20 32.28 365.56 43.63
  L 364.93 55.43
  Q 346.13 43.70 327.03 35.24
  L 328.17 24.46
  Z"
/>
<path fill="#bfa05c" d="
  M 132.42 31.45
  Q 131.19 39.63 133.12 45.13
  Q 111.54 56.63 92.20 73.54
  Q 89.98 71.56 91.13 67.39
  Q 92.00 64.22 90.66 59.12
  Q 109.95 43.25 132.42 31.45
  Z"
/>
<path fill="#ae8949" d="
  M 370.02 40.48
  Q 372.54 41.87 375.00 43.48
  Q 407.37 64.66 432.33 94.23
  L 430.29 99.39
  Q 430.12 99.81 429.73 100.04
  L 429.28 100.30
  Q 428.78 100.58 429.15 101.03
  L 431.89 104.38
  Q 432.63 106.15 433.42 106.97
  L 431.34 122.79
  Q 419.32 105.65 407.32 90.44
  C 406.16 88.97 403.39 87.89 401.79 86.24
  Q 391.16 75.21 379.83 66.56
  L 380.68 53.66
  C 392.53 62.67 401.31 70.83 412.18 81.67
  Q 412.32 81.81 412.46 81.67
  L 412.47 81.67
  Q 412.61 81.53 412.48 81.39
  Q 396.79 64.04 377.51 50.76
  Q 372.56 47.35 367.74 44.11
  Q 369.15 42.64 370.02 40.48
  Z
  M 426.0483 97.0493
  A 3.10 0.34 51.3 0 0 424.3753 94.4174
  A 3.10 0.34 51.3 0 0 422.1717 92.2107
  A 3.10 0.34 51.3 0 0 423.8447 94.8426
  A 3.10 0.34 51.3 0 0 426.0483 97.0493
  Z"
/>
<path fill="#bfa05c" d="
  M 365.56 43.63
  L 380.68 53.66
  L 379.83 66.56
  L 364.93 55.43
  L 365.56 43.63
  Z"
/>
<path fill="#ae8949" d="
  M 90.66 59.12
  Q 92.00 64.22 91.13 67.39
  Q 89.98 71.56 92.20 73.54
  Q 83.35 80.85 75.37 89.26
  C 74.19 90.50 72.49 91.24 71.34 92.58
  C 62.42 102.95 54.77 113.89 46.44 125.22
  L 45.12 109.18
  Q 63.95 81.62 90.66 59.12
  Z"
/>
<ellipse fill="#986c30" cx="0.00" cy="0.00" transform="translate(424.11,94.63) rotate(51.3)" rx="3.10" ry="0.34"/>
<path fill="#986c30" d="
  M 432.33 94.23
  C 451.92 117.83 467.59 144.05 476.60 173.52
  C 487.02 207.61 490.91 243.79 487.25 279.41
  C 486.66 285.11 486.14 291.07 485.22 296.49
  C 479.75 328.62 468.23 360.62 450.57 387.82
  C 433.90 413.51 412.61 436.33 387.83 454.78
  Q 386.55 453.94 385.82 452.69
  Q 402.50 439.72 412.83 429.84
  C 433.85 409.75 451.07 384.41 463.80 356.79
  Q 463.87 356.63 463.71 356.55
  L 463.71 356.55
  Q 463.55 356.48 463.47 356.64
  C 446.49 392.87 419.65 425.15 387.94 449.29
  Q 387.70 449.38 387.48 449.37
  Q 386.88 449.36 386.88 448.77
  Q 386.89 448.60 386.88 448.44
  A 0.50 0.49 -86.6 0 0 386.46 447.96
  L 385.96 447.88
  Q 393.04 442.25 399.85 436.35
  Q 430.86 409.46 451.25 373.26
  Q 453.81 368.71 454.76 366.77
  Q 454.84 366.62 454.69 366.54
  L 454.68 366.54
  Q 454.53 366.46 454.45 366.61
  C 449.56 375.63 443.85 385.68 437.03 393.37
  Q 436.94 393.47 436.84 393.39
  L 436.83 393.38
  Q 436.73 393.30 436.80 393.20
  C 446.18 379.44 453.60 367.02 460.77 352.13
  Q 460.87 351.93 461.08 352.00
  L 461.32 352.09
  A 0.15 0.03 -67.0 0 1 461.29 352.24
  L 460.23 354.75
  Q 460.09 355.08 460.24 355.16
  L 460.25 355.16
  Q 460.45 355.26 460.55 355.06
  Q 468.35 339.38 472.92 322.47
  C 473.22 321.37 472.82 319.94 473.75 318.81
  Q 474.07 318.42 474.05 317.91
  C 473.95 314.74 475.56 312.61 476.04 309.50
  C 478.18 295.45 481.19 281.61 482.31 267.39
  Q 484.32 241.88 481.87 221.25
  C 481.22 215.82 480.06 206.21 477.67 198.17
  Q 477.62 198.03 477.50 198.03
  Q 477.47 198.03 477.43 198.03
  Q 477.41 198.04 477.43 198.24
  L 480.62 222.60
  A 0.34 0.33 7.3 0 1 480.16 222.95
  L 479.82 222.81
  Q 479.23 222.57 479.09 221.95
  C 478.47 219.24 478.23 217.30 477.34 214.56
  C 476.77 212.82 476.83 210.73 476.47 209.16
  Q 474.82 201.80 473.22 194.44
  C 466.27 162.32 452.37 130.30 431.89 104.38
  L 429.15 101.03
  Q 428.78 100.58 429.28 100.30
  L 429.73 100.04
  Q 430.12 99.81 430.29 99.39
  L 432.33 94.23
  Z
  M 482.56 300.91
  C 480.45 310.14 478.09 319.27 474.95 328.21
  Q 474.89 328.38 475.06 328.45
  L 475.07 328.45
  Q 475.25 328.51 475.34 328.27
  Q 481.98 310.25 484.87 291.29
  Q 484.92 290.99 484.62 291.03
  Q 484.42 291.06 484.35 291.26
  C 483.32 294.47 483.19 298.17 482.56 300.91
  Z"
/>
<path fill="#986c30" d="
  M 433.42 106.97
  Q 460.29 145.42 471.65 189.49
  C 473.42 196.37 474.77 204.27 476.20 211.69
  C 476.77 214.64 477.00 219.42 477.89 223.23
  C 478.83 227.22 478.79 231.12 479.30 235.11
  Q 479.89 239.68 479.97 242.41
  C 481.39 287.73 468.77 333.61 445.70 372.67
  Q 445.62 372.81 445.75 372.89
  L 445.76 372.89
  A 0.27 0.19 -58.4 0 0 446.06 372.76
  L 452.43 362.43
  Q 452.60 362.15 452.77 362.24
  L 452.78 362.25
  Q 452.98 362.35 452.88 362.55
  Q 443.47 381.69 430.29 398.48
  Q 430.06 397.58 429.16 397.22
  A 0.76 0.75 -79.1 0 1 428.69 396.52
  L 428.68 384.45
  Q 428.68 383.92 428.35 383.51
  Q 427.81 382.84 426.96 382.67
  Q 442.95 359.41 451.71 336.74
  Q 458.25 319.81 463.21 296.49
  Q 463.80 293.72 464.36 288.34
  C 464.92 282.99 466.61 276.98 466.79 271.50
  C 467.15 260.56 467.56 252.83 467.27 243.34
  C 467.18 240.61 467.95 237.43 467.77 235.01
  Q 465.09 199.45 453.23 165.99
  C 450.46 158.18 446.39 150.48 442.63 142.82
  Q 439.17 135.77 431.34 122.79
  L 433.42 106.97
  Z"
/>
<path fill="#986c30" d="
  M 45.12 109.18
  L 46.44 125.22
  Q 42.47 132.54 37.94 141.14
  C 33.43 149.68 28.97 157.54 25.72 166.72
  C 17.78 189.12 12.65 212.33 11.04 236.04
  C 10.51 243.91 9.51 251.69 9.72 259.74
  Q 9.73 259.92 9.54 259.94
  L 9.54 259.94
  Q 9.35 259.95 9.33 259.76
  Q 8.97 256.40 8.95 253.00
  C 8.80 216.80 16.78 180.90 30.96 147.56
  Q 31.02 147.43 30.89 147.37
  L 30.89 147.37
  Q 30.76 147.31 30.70 147.43
  C 14.18 180.33 7.34 217.65 5.39 254.03
  Q 5.19 257.72 4.38 254.11
  C 4.08 252.76 3.81 250.83 3.82 249.28
  Q 3.88 216.33 12.52 186.26
  Q 16.32 173.04 23.32 154.34
  Q 23.34 154.27 23.28 154.25
  L 23.00 154.14
  Q 22.77 154.06 22.68 154.28
  L 13.00 179.00
  Q 12.60 180.01 11.52 179.93
  L 11.11 179.90
  A 0.42 0.42 0.0 0 0 10.73 180.56
  Q 11.72 182.00 10.57 183.00
  Q 10.11 183.40 9.93 183.99
  Q 6.38 195.76 3.74 207.77
  Q 3.72 207.88 3.59 207.85
  L 3.59 207.85
  Q 3.45 207.82 3.48 207.69
  C 10.15 174.93 22.42 143.51 40.65 115.43
  Q 42.34 112.83 45.12 109.18
  Z"
/>
<path fill="#ebde8f" d="
  M 254.69 130.26
  L 244.88 148.07
  A 1.53 1.53 0.0 0 1 242.20 148.08
  L 232.32 130.22
  A 1.53 1.53 0.0 0 1 233.66 127.95
  L 253.36 127.99
  A 1.53 1.53 0.0 0 1 254.69 130.26
  Z"
/>
<path fill="#ebde8f" d="
  M 224.90 170.78
  L 224.41 137.78
  L 226.99 135.73
  A 1.58 1.50 -11.6 0 0 227.51 134.98
  L 228.28 132.51
  A 0.56 0.56 0.0 0 1 229.33 132.46
  Q 233.88 143.05 240.60 152.42
  A 0.68 0.67 44.6 0 1 240.61 153.20
  Q 234.47 162.06 224.90 170.78
  Z"
/>
<path fill="#ebde8f" d="
  M 262.83 138.14
  L 261.89 195.93
  L 221.67 195.98
  Q 221.33 195.98 221.25 195.65
  L 218.45 182.93
  Q 218.34 182.46 218.70 182.13
  C 223.96 177.29 229.86 172.22 234.31 167.46
  Q 248.86 151.90 257.58 132.93
  Q 258.22 131.53 258.68 133.00
  L 259.35 135.14
  A 1.22 1.19 11.2 0 0 259.77 135.75
  L 262.83 138.14
  Z"
/>
<path fill="#d1ba72" d="
  M 224.41 137.78
  L 224.90 170.78
  L 217.63 177.44
  Q 217.20 177.83 217.05 177.27
  L 214.20 166.37
  Q 216.25 155.04 214.74 143.79
  L 224.41 137.78
  Z"
/>
<path fill="#d1ba72" d="
  M 262.83 138.14
  L 271.97 143.82
  Q 270.87 156.99 271.60 170.80
  L 265.92 195.38
  A 0.67 0.67 0.0 0 1 265.28 195.90
  L 261.89 195.93
  L 262.83 138.14
  Z"
/>
<path fill="#bfa05c" d="
  M 271.97 143.82
  L 277.53 147.59
  Q 277.99 147.90 277.84 148.44
  L 271.60 170.80
  Q 270.87 156.99 271.97 143.82
  Z"
/>
<path fill="#bfa05c" d="
  M 214.74 143.79
  Q 216.25 155.04 214.20 166.37
  L 209.08 148.25
  A 0.92 0.90 66.0 0 1 209.46 147.24
  L 214.74 143.79
  Z"
/>
<path fill="#ae8949" d="
  M 198.46 217.65
  Q 197.24 216.82 197.33 214.50
  Q 198.07 194.91 196.83 177.51
  L 205.48 153.95
  Q 205.91 152.78 206.24 153.98
  L 213.71 181.00
  Q 213.84 181.48 213.64 181.95
  L 198.46 217.65
  Z"
/>
<path fill="#bfa05c" d="
  M 285.49 165.05
  Q 283.85 172.99 284.24 179.00
  Q 285.29 195.38 284.49 207.90
  Q 279.11 195.92 274.50 184.97
  C 273.54 182.68 273.11 181.88 273.77 179.33
  Q 277.06 166.66 280.81 154.10
  A 0.34 0.34 0.0 0 1 281.46 154.08
  L 285.49 165.05
  Z"
/>
<path fill="#ae8949" d="
  M 285.49 165.05
  L 297.74 197.60
  Q 296.74 210.17 297.39 222.57
  L 292.13 224.06
  A 1.08 1.08 0.0 0 1 290.85 223.43
  L 284.49 207.90
  Q 285.29 195.38 284.24 179.00
  Q 283.85 172.99 285.49 165.05
  Z"
/>
<path fill="#986c30" d="
  M 196.83 177.51
  Q 198.07 194.91 197.33 214.50
  Q 197.24 216.82 198.46 217.65
  L 195.54 223.99
  Q 195.27 224.57 194.66 224.37
  L 181.42 219.93
  Q 180.89 219.75 181.09 219.24
  L 196.83 177.51
  Z"
/>
<path fill="#986c30" d="
  M 297.74 197.60
  L 305.93 219.25
  A 0.38 0.37 -20.3 0 1 305.70 219.74
  L 297.39 222.57
  Q 296.74 210.17 297.74 197.60
  Z"
/>
<path fill="#ebde8f" d="
  M 224.30 218.69
  L 224.75 219.08
  A 1.68 1.68 0.0 0 0 227.04 219.00
  L 242.92 203.20
  A 0.76 0.76 0.0 0 1 244.00 203.20
  L 259.61 218.69
  Q 261.06 220.13 262.53 218.71
  L 262.90 218.35
  A 1.63 1.63 0.0 0 0 262.92 216.03
  L 247.80 200.87
  Q 247.17 200.23 248.06 200.24
  L 265.12 200.31
  A 0.75 0.75 0.0 0 1 265.84 200.86
  L 273.44 228.78
  Q 273.69 229.71 272.73 229.71
  L 214.26 229.70
  Q 213.52 229.70 213.71 228.99
  L 221.14 200.72
  A 0.65 0.64 -82.3 0 1 221.76 200.24
  L 239.00 200.26
  A 0.25 0.24 22.4 0 1 239.18 200.68
  L 224.20 215.69
  Q 222.64 217.24 224.30 218.69
  Z"
/>
<path fill="#ae8949" d="
  M 143.51 263.19
  L 143.74 282.79
  Q 132.61 276.20 120.43 280.81
  Q 119.04 271.48 119.89 262.33
  Q 132.03 259.68 143.51 263.19
  Z"
/>
<path fill="#986c30" d="
  M 119.89 262.33
  Q 119.04 271.48 120.43 280.81
  C 106.72 286.40 103.16 302.72 108.86 315.39
  Q 111.86 322.08 119.35 325.87
  Q 120.39 335.86 118.89 344.53
  C 95.53 339.33 82.58 315.43 88.09 292.87
  C 91.85 277.50 104.36 265.35 119.89 262.33
  Z"
/>
<path fill="#ebde8f" d="
  M 224.97 296.98
  Q 224.97 298.14 225.72 297.25
  L 254.15 263.38
  A 1.74 1.71 -69.7 0 1 255.47 262.76
  Q 266.37 262.77 277.75 262.81
  Q 278.18 262.81 278.32 262.98
  Q 278.60 263.32 278.31 263.65
  L 248.81 296.86
  A 1.79 1.78 -42.3 0 0 248.70 299.08
  L 280.85 343.50
  Q 281.40 344.26 280.46 344.26
  L 259.06 344.27
  A 2.00 1.98 -17.7 0 1 257.41 343.43
  L 235.33 312.60
  A 0.25 0.25 0.0 0 0 234.94 312.57
  L 225.43 323.09
  A 1.80 1.78 66.2 0 0 224.97 324.29
  L 224.98 343.76
  Q 224.98 344.26 224.49 344.26
  L 206.25 344.25
  A 0.63 0.63 0.0 0 1 205.62 343.62
  L 205.62 263.47
  A 0.66 0.66 0.0 0 1 206.28 262.81
  L 224.50 262.79
  Q 224.95 262.79 224.95 263.25
  L 224.97 296.98
  Z"
/>
<path fill="#bfa05c" d="
  M 338.26 262.78
  L 337.98 344.19
  L 332.07 344.18
  Q 331.45 344.18 331.45 343.56
  L 331.44 281.14
  Q 331.44 280.22 330.52 280.22
  L 305.98 280.21
  Q 305.25 280.21 305.25 279.48
  L 305.28 263.26
  Q 305.28 262.75 305.79 262.75
  L 338.26 262.78
  Z"
/>
<path fill="#ae8949" d="
  M 338.26 262.78
  L 376.05 262.76
  A 0.74 0.74 0.0 0 1 376.79 263.50
  L 376.90 279.53
  A 0.68 0.67 -0.4 0 1 376.22 280.21
  L 351.20 280.24
  A 0.57 0.57 0.0 0 0 350.63 280.81
  L 350.69 343.78
  A 0.46 0.46 0.0 0 1 350.23 344.24
  L 337.98 344.19
  L 338.26 262.78
  Z"
/>
<path fill="#bfa05c" d="
  M 143.51 263.19
  C 165.66 270.32 176.41 290.31 172.22 312.84
  C 169.99 324.90 162.02 335.33 151.11 340.88
  Q 148.86 338.05 148.91 336.50
  C 149.04 332.69 148.98 329.36 149.17 325.08
  Q 149.29 322.38 148.56 319.76
  Q 159.06 303.55 148.88 288.25
  C 147.47 286.15 145.61 284.55 143.74 282.79
  L 143.51 263.19
  Z"
/>
<path fill="#ae8949" d="
  M 148.56 319.76
  Q 149.29 322.38 149.17 325.08
  C 148.98 329.36 149.04 332.69 148.91 336.50
  Q 148.86 338.05 151.11 340.88
  Q 135.38 348.58 118.89 344.53
  Q 120.39 335.86 119.35 325.87
  Q 136.65 332.42 148.56 319.76
  Z"
/>
<circle fill="#ebde8f" cx="292.81" cy="334.50" r="10.78"/>
<ellipse fill="#d1ba72" cx="0.00" cy="0.00" transform="translate(187.94,334.55) rotate(-5.0)" rx="10.86" ry="10.64"/>
<ellipse fill="#986c30" cx="0.00" cy="0.00" transform="translate(389.14,334.52) rotate(1.6)" rx="10.92" ry="10.68"/>
<path fill="#ae8949" d="
  M 123.57 465.26
  C 78.15 439.24 43.83 401.22 21.87 353.63
  Q 21.84 353.57 21.88 353.46
  Q 21.95 353.31 22.04 353.46
  C 24.84 358.63 27.41 364.20 30.29 368.98
  Q 35.58 377.76 41.20 386.32
  Q 73.36 435.35 124.00 464.90
  Q 124.01 464.91 124.01 464.92
  L 123.86 465.18
  A 0.22 0.21 -59.7 0 1 123.57 465.26
  Z"
/>
<path fill="#986c30" d="
  M 144.89 366.95
  A 0.19 0.18 88.6 0 0 144.70 366.76
  L 141.00 366.79
  Q 140.80 366.79 140.81 366.99
  L 141.01 373.50
  Q 141.03 374.29 140.25 374.39
  L 139.93 374.43
  A 0.43 0.43 0.0 0 1 139.44 374.00
  L 139.51 367.21
  Q 139.51 366.92 139.21 366.91
  L 135.74 366.79
  Q 135.27 366.78 135.27 367.26
  L 135.24 374.16
  A 0.28 0.27 -89.0 0 1 134.96 374.44
  L 134.68 374.42
  Q 134.04 374.40 134.04 373.76
  L 133.99 367.43
  Q 133.98 366.87 133.42 366.85
  L 132.38 366.80
  Q 131.92 366.78 131.96 366.33
  Q 131.97 366.20 132.04 366.07
  Q 132.12 365.89 132.33 365.80
  Q 132.88 365.55 133.52 365.47
  Q 133.93 365.42 134.00 365.02
  L 134.54 362.13
  A 0.96 0.96 0.0 0 1 135.23 361.38
  Q 136.18 361.10 137.48 361.29
  Q 138.28 361.41 138.53 361.96
  Q 138.78 362.51 138.17 362.51
  L 136.41 362.53
  A 0.98 0.98 0.0 0 0 135.46 363.33
  L 135.20 364.78
  A 0.62 0.62 0.0 0 0 135.80 365.51
  L 138.99 365.52
  Q 139.40 365.53 139.41 365.11
  Q 139.54 360.70 144.05 361.31
  Q 144.72 361.40 145.06 361.98
  L 145.22 362.27
  A 0.39 0.39 0.0 0 1 144.86 362.85
  L 142.02 362.66
  A 1.15 1.15 0.0 0 0 140.79 363.74
  L 140.75 364.47
  Q 140.69 365.50 141.72 365.52
  L 145.27 365.56
  A 0.97 0.97 0.0 0 1 146.23 366.52
  L 146.25 373.53
  Q 146.25 374.26 145.53 374.39
  L 145.20 374.45
  A 0.36 0.35 84.8 0 1 144.78 374.09
  L 144.89 366.95
  Z"
/>
<path fill="#ebde8f" d="
  M 261.64 366.23
  L 264.31 365.30
  A 2.16 2.15 68.9 0 1 267.01 366.50
  Q 268.51 370.01 267.84 373.78
  A 0.75 0.74 -0.1 0 1 267.23 374.38
  L 266.94 374.43
  A 0.28 0.27 -4.5 0 1 266.62 374.16
  L 266.51 368.80
  A 1.92 1.92 0.0 0 0 264.56 366.91
  Q 262.95 366.93 261.70 367.84
  A 0.99 0.99 0.0 0 0 261.29 368.60
  L 261.02 373.56
  Q 260.99 374.13 260.44 374.28
  L 260.14 374.37
  A 0.36 0.36 0.0 0 1 259.69 374.02
  L 259.74 361.73
  A 0.45 0.44 -83.8 0 1 260.28 361.29
  L 260.62 361.37
  Q 261.13 361.48 261.14 362.00
  L 261.18 365.90
  Q 261.18 366.39 261.64 366.23
  Z"
/>
<path fill="#986c30" d="
  M 346.02 365.75
  Q 346.03 366.37 346.60 366.13
  C 352.71 363.55 353.42 369.11 352.80 373.77
  Q 352.69 374.61 351.85 374.50
  L 351.50 374.45
  A 0.42 0.41 -83.7 0 1 351.14 373.99
  Q 351.38 371.54 351.25 369.25
  C 351.08 366.13 346.52 365.92 346.19 369.50
  Q 346.00 371.54 346.01 373.32
  A 1.07 1.07 0.0 0 1 345.34 374.31
  L 345.10 374.42
  Q 344.49 374.67 344.49 374.01
  L 344.51 361.92
  A 0.61 0.61 0.0 0 1 345.34 361.35
  L 345.66 361.48
  A 0.40 0.38 -81.1 0 1 345.90 361.83
  L 346.02 365.75
  Z"
/>
<rect fill="#ae8949" x="-0.92" y="-6.46" transform="translate(175.31,367.95) rotate(0.1)" width="1.84" height="12.92" rx="0.89"/>
<path fill="#bfa05c" d="
  M 185.36 368.32
  L 191.67 361.79
  A 0.42 0.41 37.6 0 1 192.19 361.73
  L 192.53 361.93
  Q 192.81 362.10 192.59 362.35
  L 188.23 367.17
  Q 187.87 367.56 188.20 367.97
  L 192.78 373.71
  A 0.31 0.31 0.0 0 1 192.71 374.17
  L 192.36 374.39
  Q 192.00 374.62 191.73 374.29
  L 187.53 369.18
  Q 187.10 368.65 186.53 369.04
  Q 184.21 370.64 184.65 373.45
  A 0.65 0.64 -21.1 0 1 184.36 374.10
  L 183.95 374.36
  A 0.38 0.38 0.0 0 1 183.37 374.05
  L 183.16 362.72
  Q 183.15 362.09 183.78 362.10
  L 184.28 362.12
  A 0.52 0.51 -88.9 0 1 184.78 362.65
  L 184.65 368.02
  Q 184.63 369.07 185.36 368.32
  Z"
/>
<path fill="#ebde8f" d="
  M 249.29 363.54
  C 243.27 366.96 249.27 377.34 254.96 371.65
  Q 255.56 371.05 256.18 370.63
  A 0.66 0.65 60.1 0 1 257.14 370.89
  Q 257.36 371.37 257.05 371.82
  C 253.48 377.04 245.65 374.44 245.24 368.52
  C 244.78 361.73 252.94 360.01 257.12 364.44
  A 0.86 0.86 0.0 0 1 257.10 365.64
  L 256.87 365.86
  A 0.55 0.55 0.0 0 1 256.02 365.77
  Q 253.11 361.36 249.29 363.54
  Z"
/>
<path fill="#986c30" d="
  M 130.74 368.20
  A 6.29 6.29 0.0 0 1 124.45 374.49
  A 6.29 6.29 0.0 0 1 118.16 368.20
  A 6.29 6.29 0.0 0 1 124.45 361.91
  A 6.29 6.29 0.0 0 1 130.74 368.20
  Z
  M 123.6105 373.4006
  A 5.28 5.03 98.6 0 0 129.3734 368.9322
  A 5.28 5.03 98.6 0 0 125.1895 362.9594
  A 5.28 5.03 98.6 0 0 119.4266 367.4278
  A 5.28 5.03 98.6 0 0 123.6105 373.4006
  Z"
/>
<circle fill="#ae8949" cx="159.70" cy="363.01" r="0.82"/>
<ellipse fill="#bfa05c" cx="0.00" cy="0.00" transform="translate(310.36,363.00) rotate(31.4)" rx="0.87" ry="0.74"/>
<ellipse fill="#986c30" cx="0.00" cy="0.00" transform="translate(356.06,362.95) rotate(8.8)" rx="1.07" ry="0.80"/>
<path fill="#ebde8f" d="
  M 223.77 366.97
  L 222.77 366.85
  A 0.42 0.42 0.0 0 1 222.55 366.12
  Q 223.05 365.68 223.70 365.54
  Q 224.15 365.44 224.18 364.98
  L 224.28 363.04
  Q 224.31 362.60 224.74 362.51
  L 225.14 362.44
  A 0.46 0.45 83.5 0 1 225.68 362.87
  L 225.74 365.01
  Q 225.75 365.51 226.26 365.51
  L 227.98 365.48
  Q 228.52 365.47 228.51 366.01
  L 228.51 366.31
  Q 228.50 367.06 227.75 367.02
  L 226.27 366.93
  A 0.55 0.54 -88.5 0 0 225.70 367.48
  L 225.72 372.58
  A 0.62 0.62 0.0 0 0 226.32 373.20
  L 227.78 373.26
  A 0.49 0.49 0.0 0 1 228.12 374.09
  Q 227.83 374.39 227.25 374.48
  C 223.13 375.11 224.27 369.87 224.25 367.52
  Q 224.25 367.03 223.77 366.97
  Z"
/>
<path fill="#ae8949" d="
  M 337.27 368.61
  L 340.63 369.78
  A 2.36 2.35 -76.6 0 1 342.18 372.31
  C 341.73 375.75 337.21 374.51 335.10 373.03
  Q 334.88 372.87 334.92 372.59
  L 335.08 371.53
  Q 335.10 371.41 335.21 371.48
  L 338.24 373.54
  Q 339.55 374.43 340.40 373.08
  L 340.71 372.59
  Q 341.40 371.50 340.18 371.07
  C 338.48 370.48 334.07 369.87 335.57 366.92
  C 336.61 364.88 341.45 364.94 341.74 367.14
  Q 341.84 367.85 341.15 367.63
  L 338.23 366.69
  Q 337.34 366.41 336.94 367.26
  L 336.81 367.53
  A 0.79 0.79 0.0 0 0 337.27 368.61
  Z"
/>
<path fill="#986c30" d="
  M 360.83 374.16
  L 360.60 378.20
  Q 360.59 378.45 360.34 378.42
  L 360.01 378.40
  A 0.55 0.54 -87.8 0 1 359.51 377.85
  L 359.50 366.05
  A 0.43 0.43 0.0 0 1 360.16 365.69
  Q 360.58 365.95 360.88 366.34
  A 0.52 0.52 0.0 0 0 361.60 366.44
  C 368.71 361.24 371.92 375.25 364.03 374.46
  C 363.28 374.38 362.35 373.91 361.41 373.72
  Q 360.86 373.60 360.83 374.16
  Z
  M 367.51 370.03
  A 3.41 3.41 0.0 0 0 364.10 366.62
  A 3.41 3.41 0.0 0 0 360.69 370.03
  A 3.41 3.41 0.0 0 0 364.10 373.44
  A 3.41 3.41 0.0 0 0 367.51 370.03
  Z"
/>
<path fill="#ae8949" d="
  M 156.30 368.27
  C 145.78 362.64 149.07 378.10 155.68 371.71
  A 0.40 0.40 0.0 0 1 156.23 371.71
  L 156.46 371.92
  A 0.66 0.66 0.0 0 1 156.50 372.84
  C 151.88 378.01 144.58 370.75 149.93 366.42
  Q 152.40 364.42 156.22 366.68
  A 1.01 1.00 14.3 0 1 156.72 367.51
  L 156.74 367.99
  Q 156.77 368.52 156.30 368.27
  Z"
/>
<rect fill="#ae8949" x="-0.70" y="-4.39" transform="translate(159.72,369.93) rotate(0.1)" width="1.40" height="8.78" rx="0.56"/>
<path fill="#ae8949" d="
  M 170.93 365.92
  L 171.22 365.73
  Q 171.87 365.31 171.87 366.08
  L 171.88 373.54
  Q 171.88 373.86 171.56 373.83
  Q 170.33 373.72 168.02 374.25
  C 161.12 375.84 160.71 364.99 167.68 365.53
  C 168.44 365.59 169.13 366.12 169.94 366.17
  Q 170.48 366.21 170.93 365.92
  Z
  M 170.60 370.05
  A 3.40 3.40 0.0 0 0 167.20 366.65
  A 3.40 3.40 0.0 0 0 163.80 370.05
  A 3.40 3.40 0.0 0 0 167.20 373.45
  A 3.40 3.40 0.0 0 0 170.60 370.05
  Z"
/>
<path fill="#ebde8f" d="
  M 201.10 373.66
  C 191.34 377.80 191.99 363.35 199.79 365.81
  A 5.22 4.77 53.9 0 0 200.72 366.00
  Q 201.70 366.08 202.62 365.78
  A 0.45 0.45 0.0 0 1 203.21 366.22
  L 203.10 374.03
  A 0.38 0.38 0.0 0 1 202.45 374.29
  L 202.01 373.84
  Q 201.62 373.44 201.10 373.66
  Z
  M 201.90 370.04
  A 3.44 3.44 0.0 0 0 198.46 366.60
  A 3.44 3.44 0.0 0 0 195.02 370.04
  A 3.44 3.44 0.0 0 0 198.46 373.48
  A 3.44 3.44 0.0 0 0 201.90 370.04
  Z"
/>
<path fill="#ebde8f" d="
  M 207.86 366.32
  Q 208.73 365.61 209.87 365.47
  A 0.47 0.46 68.9 0 1 210.30 365.67
  Q 210.39 365.80 210.50 365.91
  A 0.15 0.15 0.0 0 1 210.47 366.14
  L 207.80 367.80
  Q 207.32 368.11 207.28 368.68
  L 206.93 373.78
  A 0.61 0.60 -5.4 0 1 206.48 374.32
  L 206.10 374.43
  A 0.27 0.26 82.6 0 1 205.77 374.17
  L 205.74 366.00
  Q 205.74 365.23 206.40 365.63
  Q 206.76 365.86 207.02 366.21
  Q 207.38 366.72 207.86 366.32
  Z"
/>
<path fill="#ebde8f" d="
  M 219.99 373.80
  C 218.50 373.60 217.21 374.28 216.03 374.34
  C 209.81 374.67 210.52 365.68 215.71 365.49
  C 217.05 365.45 218.65 366.48 220.53 365.73
  Q 220.96 365.57 220.96 366.02
  L 220.99 373.97
  Q 220.99 374.40 220.63 374.16
  L 220.30 373.93
  A 0.76 0.76 0.0 0 0 219.99 373.80
  Z
  M 214.8451 373.2520
  A 3.48 3.32 112.2 0 0 219.2339 371.2844
  A 3.48 3.32 112.2 0 0 217.4749 366.8080
  A 3.48 3.32 112.2 0 0 213.0861 368.7756
  A 3.48 3.32 112.2 0 0 214.8451 373.2520
  Z"
/>
<path fill="#ebde8f" d="
  M 231.61 371.41
  Q 233.28 373.60 236.05 373.25
  Q 236.60 373.18 236.93 372.73
  Q 237.30 372.22 237.39 372.19
  Q 240.24 371.27 238.12 373.39
  C 232.69 378.81 225.40 367.20 234.27 365.46
  A 3.79 3.78 66.6 0 1 238.08 366.98
  L 239.09 368.41
  Q 240.56 370.48 238.02 370.50
  L 232.04 370.53
  A 0.55 0.55 0.0 0 0 231.61 371.41
  Z
  M 232.24 369.49
  L 237.10 369.23
  A 0.24 0.24 0.0 0 0 237.32 368.98
  L 237.30 368.64
  A 2.48 2.04 -3.0 0 0 234.72 366.73
  L 234.34 366.75
  A 2.48 2.04 -3.0 0 0 231.97 368.92
  L 231.99 369.26
  A 0.24 0.24 0.0 0 0 232.24 369.49
  Z"
/>
<path fill="#ebde8f" d="
  M 276.88 373.74
  C 269.01 378.36 267.43 364.04 275.02 365.50
  Q 277.49 365.98 278.77 365.79
  Q 279.26 365.72 279.26 366.22
  L 279.25 373.91
  Q 279.25 374.45 278.71 374.48
  Q 278.01 374.52 277.61 373.91
  Q 277.33 373.48 276.88 373.74
  Z
  M 277.89 370.01
  A 3.37 3.37 0.0 0 0 274.52 366.64
  A 3.37 3.37 0.0 0 0 271.15 370.01
  A 3.37 3.37 0.0 0 0 274.52 373.38
  A 3.37 3.37 0.0 0 0 277.89 370.01
  Z"
/>
<path fill="#ebde8f" d="
  M 289.55 366.49
  Q 291.40 364.88 293.82 365.75
  Q 295.34 366.31 295.43 367.92
  L 295.76 373.59
  A 0.75 0.75 0.0 0 1 295.03 374.38
  L 294.72 374.39
  A 0.43 0.42 88.7 0 1 294.29 373.97
  L 294.25 368.28
  A 1.49 1.49 0.0 0 0 292.52 366.82
  L 291.77 366.95
  Q 289.42 367.33 289.35 369.72
  L 289.23 374.00
  A 0.44 0.43 3.1 0 1 288.75 374.42
  L 288.50 374.40
  A 0.51 0.50 4.2 0 1 288.04 373.88
  L 288.19 369.16
  A 2.09 2.09 0.0 0 0 286.24 367.01
  L 285.67 366.98
  A 2.20 2.19 2.6 0 0 283.33 369.11
  L 283.19 374.14
  A 0.30 0.29 -1.0 0 1 282.90 374.43
  L 282.56 374.44
  A 0.52 0.52 0.0 0 1 282.02 373.92
  L 282.00 366.00
  Q 282.00 365.14 282.66 365.70
  Q 283.72 366.62 284.98 365.78
  Q 285.43 365.47 285.98 365.46
  Q 287.53 365.44 288.64 366.47
  Q 289.09 366.90 289.55 366.49
  Z"
/>
<path fill="#ebde8f" d="
  M 299.60 373.98
  L 299.70 377.74
  A 0.45 0.45 0.0 0 1 299.26 378.20
  L 298.76 378.20
  A 0.44 0.44 0.0 0 1 298.32 377.76
  L 298.34 366.28
  Q 298.34 365.33 299.14 365.83
  L 299.74 366.20
  Q 300.23 366.50 300.72 366.21
  C 305.68 363.22 309.69 369.84 306.28 373.34
  Q 303.90 375.80 300.26 373.60
  A 0.44 0.43 14.9 0 0 299.60 373.98
  Z
  M 306.41 370.03
  A 3.43 3.43 0.0 0 0 302.98 366.60
  A 3.43 3.43 0.0 0 0 299.55 370.03
  A 3.43 3.43 0.0 0 0 302.98 373.46
  A 3.43 3.43 0.0 0 0 306.41 370.03
  Z"
/>
<rect fill="#bfa05c" x="-0.65" y="-4.43" transform="translate(310.36,369.96) rotate(0.3)" width="1.30" height="8.86" rx="0.45"/>
<path fill="#bfa05c" d="
  M 322.54 370.00
  A 4.59 4.59 0.0 0 1 317.95 374.59
  A 4.59 4.59 0.0 0 1 313.36 370.00
  A 4.59 4.59 0.0 0 1 317.95 365.41
  A 4.59 4.59 0.0 0 1 322.54 370.00
  Z
  M 321.32 370.04
  A 3.40 3.40 0.0 0 0 317.92 366.64
  A 3.40 3.40 0.0 0 0 314.52 370.04
  A 3.40 3.40 0.0 0 0 317.92 373.44
  A 3.40 3.40 0.0 0 0 321.32 370.04
  Z"
/>
<path fill="#ae8949" d="
  M 326.07 369.05
  L 326.00 374.03
  A 0.27 0.27 0.0 0 1 325.72 374.29
  L 324.99 374.25
  Q 324.75 374.24 324.75 374.00
  L 324.72 366.02
  Q 324.72 365.37 325.29 365.69
  C 327.21 366.74 328.34 365.28 329.94 365.42
  C 333.19 365.70 333.16 370.74 332.80 373.76
  A 0.66 0.65 -0.6 0 1 332.24 374.33
  L 331.95 374.37
  Q 331.71 374.41 331.70 374.17
  L 331.48 368.53
  A 1.75 1.74 85.0 0 0 329.51 366.87
  L 327.82 367.09
  Q 326.10 367.32 326.07 369.05
  Z"
/>
<rect fill="#986c30" x="-0.76" y="-4.45" transform="translate(356.02,369.99) rotate(0.3)" width="1.52" height="8.90" rx="0.59"/>
<path fill="#ae8949" d="
  M 426.96 382.67
  Q 427.81 382.84 428.35 383.51
  Q 428.68 383.92 428.68 384.45
  L 428.69 396.52
  A 0.76 0.75 -79.1 0 0 429.16 397.22
  Q 430.06 397.58 430.29 398.48
  Q 390.32 451.06 328.81 475.30
  Q 328.62 475.38 328.53 475.20
  L 328.53 475.19
  Q 328.44 475.01 328.61 474.90
  C 330.29 473.93 332.29 473.24 333.82 472.37
  Q 345.24 465.88 356.79 459.50
  A 0.27 0.25 73.5 0 0 356.92 459.24
  L 356.88 458.88
  Q 356.85 458.65 356.66 458.77
  Q 354.11 460.36 351.29 461.12
  Q 350.75 461.27 351.22 460.97
  Q 355.04 458.49 358.90 456.12
  Q 383.05 441.35 403.32 421.60
  Q 415.88 409.35 423.36 396.61
  Q 426.00 392.11 422.44 395.93
  Q 411.47 407.72 399.00 417.93
  Q 398.82 418.07 398.67 417.91
  L 398.49 417.72
  Q 398.29 417.50 398.50 417.29
  Q 414.47 401.35 426.96 382.67
  Z"
/>
<path fill="#ae8949" d="
  M 385.18 426.60
  Q 396.29 417.93 405.37 407.55
  Q 405.46 407.44 405.36 407.35
  Q 403.39 405.55 405.58 407.34
  Q 405.74 407.47 405.61 407.63
  Q 399.26 415.12 392.11 421.85
  Q 388.07 425.66 385.55 427.15
  Q 381.06 429.82 385.18 426.60
  Z"
/>
<ellipse fill="#986c30" cx="0.00" cy="0.00" transform="translate(109.88,446.68) rotate(36.0)" rx="1.57" ry="0.27"/>
<path fill="#bfa05c" d="
  M 385.96 447.88
  L 386.46 447.96
  A 0.50 0.49 -86.6 0 1 386.88 448.44
  Q 386.89 448.60 386.88 448.77
  Q 386.88 449.36 387.48 449.37
  Q 387.70 449.38 387.94 449.29
  L 368.60 463.26
  Q 368.49 463.34 368.56 463.45
  L 368.57 463.45
  Q 368.64 463.57 368.75 463.50
  Q 373.13 460.79 377.64 458.27
  C 380.67 456.58 383.13 454.73 385.82 452.69
  Q 386.55 453.94 387.83 454.78
  Q 367.53 469.35 344.74 479.96
  Q 343.44 479.55 342.23 479.04
  C 340.39 478.26 337.76 478.68 337.07 476.26
  Q 363.18 464.52 385.96 447.88
  Z"
/>
<ellipse fill="#986c30" cx="0.00" cy="0.00" transform="translate(122.87,455.31) rotate(32.4)" rx="1.57" ry="0.17"/>
<path fill="#bfa05c" d="
  M 132.67 460.50
  Q 155.60 473.31 182.52 480.96
  Q 184.06 481.39 184.64 481.35
  Q 184.81 481.33 184.81 481.50
  L 184.81 481.50
  Q 184.81 481.67 184.65 481.66
  Q 182.28 481.56 179.98 480.88
  C 162.14 475.64 145.02 468.90 129.18 459.06
  Q 129.04 458.97 129.12 458.83
  L 129.12 458.82
  Q 129.20 458.68 129.35 458.75
  Q 131.03 459.58 132.67 460.50
  Z"
/>
<rect fill="#d1ba72" x="-4.43" y="-0.32" transform="translate(320.39,464.71) rotate(-19.9)" width="8.86" height="0.64" rx="0.27"/>
<ellipse fill="#d1ba72" cx="0.00" cy="0.00" transform="translate(311.73,467.48) rotate(-16.7)" rx="3.10" ry="0.23"/>
<path fill="#ebde8f" d="
  M 337.07 476.26
  C 337.76 478.68 340.39 478.26 342.23 479.04
  Q 343.44 479.55 344.74 479.96
  Q 310.39 495.17 272.96 500.03
  Q 258.54 501.90 245.83 501.24
  Q 240.15 500.94 245.76 500.01
  C 247.44 499.73 249.68 499.38 251.74 499.25
  Q 293.53 496.66 332.40 481.12
  Q 332.51 481.08 332.47 480.96
  L 332.47 480.96
  Q 332.43 480.84 332.32 480.87
  Q 329.63 481.57 327.01 482.52
  Q 313.96 487.20 300.45 490.35
  Q 276.02 496.03 259.50 496.85
  Q 238.24 497.89 229.00 496.94
  Q 221.01 496.11 213.02 495.07
  Q 211.81 494.91 211.71 494.89
  Q 209.21 494.30 211.76 494.55
  C 218.74 495.25 226.13 496.15 232.95 496.27
  Q 284.94 497.18 333.16 477.58
  Q 335.25 476.73 337.07 476.26
  Z"
/>
<path fill="#ebde8f" d="
  M 158.19 482.33
  Q 153.41 480.24 151.61 479.24
  Q 151.43 479.15 151.52 478.97
  L 151.52 478.96
  Q 151.61 478.78 151.80 478.86
  Q 170.50 487.08 190.42 491.66
  Q 190.65 491.71 190.60 491.94
  L 190.60 491.95
  Q 190.55 492.17 190.33 492.13
  Q 174.22 489.36 158.19 482.33
  Z"
/>
<ellipse fill="#d1ba72" cx="0.00" cy="0.00" transform="translate(190.52,483.26) rotate(13.5)" rx="4.03" ry="0.36"/>
<path fill="#d1ba72" d="
  M 272.11 491.66
  C 268.95 492.01 264.99 492.52 261.86 492.47
  Q 260.50 492.45 261.84 492.23
  Q 266.67 491.43 272.11 491.64
  Q 272.21 491.65 272.11 491.66
  Z"
/>
<path fill="#ebde8f" d="
  M 236.24 493.10
  Q 235.11 493.02 234.56 492.92
  Q 232.55 492.57 234.50 492.57
  L 260.08 492.56
  A 0.04 0.04 0.0 0 1 260.09 492.64
  Q 248.27 493.94 236.24 493.10
  Z"
/>
</svg>
